<?xml version="1.0" encoding="UTF-8" standalone="no"?>
<!DOCTYPE svg PUBLIC "-//W3C//DTD SVG 1.1//EN"
 "http://www.w3.org/Graphics/SVG/1.1/DTD/svg11.dtd">
<!-- Generated by graphviz version 13.1.0 (20250701.0955)
 -->
<!-- Title: encyclopedia_structure Pages: 1 -->
<svg width="705pt" height="488pt"
 viewBox="0.00 0.00 705.00 488.00" xmlns="http://www.w3.org/2000/svg" xmlns:xlink="http://www.w3.org/1999/xlink">
<g id="graph0" class="graph" transform="scale(1 1) rotate(0) translate(4 483.75)">
<title>encyclopedia_structure</title>
<polygon fill="white" stroke="none" points="-4,4 -4,-483.75 700.5,-483.75 700.5,4 -4,4"/>
<!-- TITLE -->
<g id="node1" class="node">
<title>TITLE</title>
<g id="a_node1"><a xlink:href="simple_encyclopedia_example.html" xlink:title="Simple Encyclopedia Example\n10 Entries">
<path fill="lightblue" stroke="black" d="M303.38,-479.75C303.38,-479.75 178.62,-479.75 178.62,-479.75 172.62,-479.75 166.62,-473.75 166.62,-467.75 166.62,-467.75 166.62,-455.75 166.62,-455.75 166.62,-449.75 172.62,-443.75 178.62,-443.75 178.62,-443.75 303.38,-443.75 303.38,-443.75 309.38,-443.75 315.38,-449.75 315.38,-455.75 315.38,-455.75 315.38,-467.75 315.38,-467.75 315.38,-473.75 309.38,-479.75 303.38,-479.75"/>
<text xml:space="preserve" text-anchor="middle" x="241" y="-464.25" font-family="Arial" font-size="10.00">Simple Encyclopedia Example</text>
<text xml:space="preserve" text-anchor="middle" x="241" y="-452.25" font-family="Arial" font-size="10.00">10 Entries</text>
</a>
</g>
</g>
<!-- CC_GROUP -->
<g id="node2" class="node">
<title>CC_GROUP</title>
<path fill="lightgreen" stroke="black" d="M436.38,-402.75C436.38,-402.75 365.62,-402.75 365.62,-402.75 359.62,-402.75 353.62,-396.75 353.62,-390.75 353.62,-390.75 353.62,-378.75 353.62,-378.75 353.62,-372.75 359.62,-366.75 365.62,-366.75 365.62,-366.75 436.38,-366.75 436.38,-366.75 442.38,-366.75 448.38,-372.75 448.38,-378.75 448.38,-378.75 448.38,-390.75 448.38,-390.75 448.38,-396.75 442.38,-402.75 436.38,-402.75"/>
<text xml:space="preserve" text-anchor="middle" x="401" y="-387.25" font-family="Arial" font-size="10.00">Synonym Group 1</text>
<text xml:space="preserve" text-anchor="middle" x="401" y="-375.25" font-family="Arial" font-size="10.00">Wikidata: Q7942</text>
</g>
<!-- TITLE&#45;&gt;CC_GROUP -->
<g id="edge1" class="edge">
<title>TITLE&#45;&gt;CC_GROUP</title>
<path fill="none" stroke="black" d="M278.11,-443.35C300.55,-432.84 329.37,-419.33 353.47,-408.03"/>
<polygon fill="black" stroke="black" points="354.88,-411.24 362.44,-403.82 351.9,-404.9 354.88,-411.24"/>
</g>
<!-- CO2_GROUP -->
<g id="node5" class="node">
<title>CO2_GROUP</title>
<path fill="lightgreen" stroke="black" d="M148.38,-402.75C148.38,-402.75 77.62,-402.75 77.62,-402.75 71.62,-402.75 65.62,-396.75 65.62,-390.75 65.62,-390.75 65.62,-378.75 65.62,-378.75 65.62,-372.75 71.62,-366.75 77.62,-366.75 77.62,-366.75 148.38,-366.75 148.38,-366.75 154.38,-366.75 160.38,-372.75 160.38,-378.75 160.38,-378.75 160.38,-390.75 160.38,-390.75 160.38,-396.75 154.38,-402.75 148.38,-402.75"/>
<text xml:space="preserve" text-anchor="middle" x="113" y="-387.25" font-family="Arial" font-size="10.00">Synonym Group 2</text>
<text xml:space="preserve" text-anchor="middle" x="113" y="-375.25" font-family="Arial" font-size="10.00">Wikidata: Q1218</text>
</g>
<!-- TITLE&#45;&gt;CO2_GROUP -->
<g id="edge2" class="edge">
<title>TITLE&#45;&gt;CO2_GROUP</title>
<path fill="none" stroke="black" d="M211.31,-443.35C193.78,-433.08 171.38,-419.96 152.39,-408.83"/>
<polygon fill="black" stroke="black" points="154.23,-405.85 143.83,-403.82 150.69,-411.89 154.23,-405.85"/>
</g>
<!-- GHG -->
<g id="node8" class="node">
<title>GHG</title>
<g id="a_node8"><a xlink:href="simple_encyclopedia_example.html#greenhouse_gas" xlink:title="Greenhouse Gas\nQ13138\nWikipedia ✓">
<path fill="lightyellow" stroke="black" d="M360.75,-134.5C360.75,-134.5 295.25,-134.5 295.25,-134.5 289.25,-134.5 283.25,-128.5 283.25,-122.5 283.25,-122.5 283.25,-102.5 283.25,-102.5 283.25,-96.5 289.25,-90.5 295.25,-90.5 295.25,-90.5 360.75,-90.5 360.75,-90.5 366.75,-90.5 372.75,-96.5 372.75,-102.5 372.75,-102.5 372.75,-122.5 372.75,-122.5 372.75,-128.5 366.75,-134.5 360.75,-134.5"/>
<text xml:space="preserve" text-anchor="middle" x="328" y="-121" font-family="Arial" font-size="10.00">Greenhouse Gas</text>
<text xml:space="preserve" text-anchor="middle" x="328" y="-109" font-family="Arial" font-size="10.00">Q13138</text>
<text xml:space="preserve" text-anchor="middle" x="328" y="-97" font-family="Arial" font-size="10.00">Wikipedia ✓</text>
</a>
</g>
</g>
<!-- TITLE&#45;&gt;GHG -->
<g id="edge3" class="edge">
<title>TITLE&#45;&gt;GHG</title>
<path fill="none" stroke="black" d="M166.28,-447.5C108.39,-435.04 38,-414.07 38,-385.75 38,-385.75 38,-385.75 38,-202 38,-153.62 187.49,-129.09 271.81,-119.1"/>
<polygon fill="black" stroke="black" points="271.97,-122.61 281.5,-117.99 271.17,-115.65 271.97,-122.61"/>
</g>
<!-- FF -->
<g id="node9" class="node">
<title>FF</title>
<g id="a_node9"><a xlink:href="simple_encyclopedia_example.html#fossil_fuels" xlink:title="Fossil Fuels\nQ188425\nWikipedia ✓">
<path fill="lightyellow" stroke="black" d="M481.62,-225C481.62,-225 436.38,-225 436.38,-225 430.38,-225 424.38,-219 424.38,-213 424.38,-213 424.38,-193 424.38,-193 424.38,-187 430.38,-181 436.38,-181 436.38,-181 481.62,-181 481.62,-181 487.62,-181 493.62,-187 493.62,-193 493.62,-193 493.62,-213 493.62,-213 493.62,-219 487.62,-225 481.62,-225"/>
<text xml:space="preserve" text-anchor="middle" x="459" y="-211.5" font-family="Arial" font-size="10.00">Fossil Fuels</text>
<text xml:space="preserve" text-anchor="middle" x="459" y="-199.5" font-family="Arial" font-size="10.00">Q188425</text>
<text xml:space="preserve" text-anchor="middle" x="459" y="-187.5" font-family="Arial" font-size="10.00">Wikipedia ✓</text>
</a>
</g>
</g>
<!-- TITLE&#45;&gt;FF -->
<g id="edge4" class="edge">
<title>TITLE&#45;&gt;FF</title>
<path fill="none" stroke="black" d="M315.64,-459.47C403.47,-456.2 541.5,-444.94 574,-406.75 621.03,-351.48 545.73,-274.15 496.41,-232.79"/>
<polygon fill="black" stroke="black" points="498.66,-230.1 488.71,-226.46 494.22,-235.51 498.66,-230.1"/>
</g>
<!-- GE -->
<g id="node10" class="node">
<title>GE</title>
<g id="a_node10"><a xlink:href="simple_encyclopedia_example.html#greenhouse_effect" xlink:title="Greenhouse Effect\nQ193078\nWikipedia ✓">
<path fill="lightyellow" stroke="black" d="M364.5,-44C364.5,-44 291.5,-44 291.5,-44 285.5,-44 279.5,-38 279.5,-32 279.5,-32 279.5,-12 279.5,-12 279.5,-6 285.5,0 291.5,0 291.5,0 364.5,0 364.5,0 370.5,0 376.5,-6 376.5,-12 376.5,-12 376.5,-32 376.5,-32 376.5,-38 370.5,-44 364.5,-44"/>
<text xml:space="preserve" text-anchor="middle" x="328" y="-30.5" font-family="Arial" font-size="10.00">Greenhouse Effect</text>
<text xml:space="preserve" text-anchor="middle" x="328" y="-18.5" font-family="Arial" font-size="10.00">Q193078</text>
<text xml:space="preserve" text-anchor="middle" x="328" y="-6.5" font-family="Arial" font-size="10.00">Wikipedia ✓</text>
</a>
</g>
</g>
<!-- TITLE&#45;&gt;GE -->
<g id="edge5" class="edge">
<title>TITLE&#45;&gt;GE</title>
<path fill="none" stroke="black" d="M166.4,-452.05C95.62,-441.66 0,-421.08 0,-385.75 0,-385.75 0,-385.75 0,-111.5 0,-56.65 173.13,-34.79 267.83,-26.93"/>
<polygon fill="black" stroke="black" points="268.05,-30.42 277.74,-26.14 267.49,-23.45 268.05,-30.42"/>
</g>
<!-- CH4 -->
<g id="node11" class="node">
<title>CH4</title>
<g id="a_node11"><a xlink:href="simple_encyclopedia_example.html#methane" xlink:title="Methane\nQ1490\nWikipedia ✓">
<path fill="lightyellow" stroke="black" d="M235.62,-406.75C235.62,-406.75 190.38,-406.75 190.38,-406.75 184.38,-406.75 178.38,-400.75 178.38,-394.75 178.38,-394.75 178.38,-374.75 178.38,-374.75 178.38,-368.75 184.38,-362.75 190.38,-362.75 190.38,-362.75 235.62,-362.75 235.62,-362.75 241.62,-362.75 247.62,-368.75 247.62,-374.75 247.62,-374.75 247.62,-394.75 247.62,-394.75 247.62,-400.75 241.62,-406.75 235.62,-406.75"/>
<text xml:space="preserve" text-anchor="middle" x="213" y="-393.25" font-family="Arial" font-size="10.00">Methane</text>
<text xml:space="preserve" text-anchor="middle" x="213" y="-381.25" font-family="Arial" font-size="10.00">Q1490</text>
<text xml:space="preserve" text-anchor="middle" x="213" y="-369.25" font-family="Arial" font-size="10.00">Wikipedia ✓</text>
</a>
</g>
</g>
<!-- TITLE&#45;&gt;CH4 -->
<g id="edge6" class="edge">
<title>TITLE&#45;&gt;CH4</title>
<path fill="none" stroke="black" d="M234.51,-443.35C231.67,-435.75 228.24,-426.57 224.97,-417.81"/>
<polygon fill="black" stroke="black" points="228.26,-416.63 221.49,-408.48 221.71,-419.08 228.26,-416.63"/>
</g>
<!-- RE -->
<g id="node12" class="node">
<title>RE</title>
<g id="a_node12"><a xlink:href="simple_encyclopedia_example.html#renewable_energy" xlink:title="Renewable Energy\nQ188836\nWikipedia ✓">
<path fill="lightyellow" stroke="black" d="M553.25,-406.75C553.25,-406.75 478.75,-406.75 478.75,-406.75 472.75,-406.75 466.75,-400.75 466.75,-394.75 466.75,-394.75 466.75,-374.75 466.75,-374.75 466.75,-368.75 472.75,-362.75 478.75,-362.75 478.75,-362.75 553.25,-362.75 553.25,-362.75 559.25,-362.75 565.25,-368.75 565.25,-374.75 565.25,-374.75 565.25,-394.75 565.25,-394.75 565.25,-400.75 559.25,-406.75 553.25,-406.75"/>
<text xml:space="preserve" text-anchor="middle" x="516" y="-393.25" font-family="Arial" font-size="10.00">Renewable Energy</text>
<text xml:space="preserve" text-anchor="middle" x="516" y="-381.25" font-family="Arial" font-size="10.00">Q188836</text>
<text xml:space="preserve" text-anchor="middle" x="516" y="-369.25" font-family="Arial" font-size="10.00">Wikipedia ✓</text>
</a>
</g>
</g>
<!-- TITLE&#45;&gt;RE -->
<g id="edge7" class="edge">
<title>TITLE&#45;&gt;RE</title>
<path fill="none" stroke="black" d="M315.46,-444.02C354.63,-434.78 403.59,-422.54 455.72,-407"/>
<polygon fill="black" stroke="black" points="456.53,-410.42 465.09,-404.18 454.51,-403.71 456.53,-410.42"/>
</g>
<!-- IPCC -->
<g id="node13" class="node">
<title>IPCC</title>
<g id="a_node13"><a xlink:href="simple_encyclopedia_example.html#ipcc" xlink:title="IPCC\nNo Wikidata\nWikipedia ✓">
<path fill="lightcoral" stroke="black" d="M324,-406.75C324,-406.75 278,-406.75 278,-406.75 272,-406.75 266,-400.75 266,-394.75 266,-394.75 266,-374.75 266,-374.75 266,-368.75 272,-362.75 278,-362.75 278,-362.75 324,-362.75 324,-362.75 330,-362.75 336,-368.75 336,-374.75 336,-374.75 336,-394.75 336,-394.75 336,-400.75 330,-406.75 324,-406.75"/>
<text xml:space="preserve" text-anchor="middle" x="301" y="-393.25" font-family="Arial" font-size="10.00">IPCC</text>
<text xml:space="preserve" text-anchor="middle" x="301" y="-381.25" font-family="Arial" font-size="10.00">No Wikidata</text>
<text xml:space="preserve" text-anchor="middle" x="301" y="-369.25" font-family="Arial" font-size="10.00">Wikipedia ✓</text>
</a>
</g>
</g>
<!-- TITLE&#45;&gt;IPCC -->
<g id="edge8" class="edge">
<title>TITLE&#45;&gt;IPCC</title>
<path fill="none" stroke="black" d="M254.92,-443.35C261.47,-435.16 269.49,-425.14 276.98,-415.77"/>
<polygon fill="black" stroke="black" points="279.49,-418.24 283,-408.25 274.02,-413.87 279.49,-418.24"/>
</g>
<!-- CC -->
<g id="node3" class="node">
<title>CC</title>
<g id="a_node3"><a xlink:href="simple_encyclopedia_example.html#climate_change" xlink:title="Climate Change\nQ7942\nWikipedia ✓">
<path fill="lightyellow" stroke="black" d="M437.25,-315.88C437.25,-315.88 374.75,-315.88 374.75,-315.88 368.75,-315.88 362.75,-309.88 362.75,-303.88 362.75,-303.88 362.75,-283.88 362.75,-283.88 362.75,-277.88 368.75,-271.88 374.75,-271.88 374.75,-271.88 437.25,-271.88 437.25,-271.88 443.25,-271.88 449.25,-277.88 449.25,-283.88 449.25,-283.88 449.25,-303.88 449.25,-303.88 449.25,-309.88 443.25,-315.88 437.25,-315.88"/>
<text xml:space="preserve" text-anchor="middle" x="406" y="-302.38" font-family="Arial" font-size="10.00">Climate Change</text>
<text xml:space="preserve" text-anchor="middle" x="406" y="-290.38" font-family="Arial" font-size="10.00">Q7942</text>
<text xml:space="preserve" text-anchor="middle" x="406" y="-278.38" font-family="Arial" font-size="10.00">Wikipedia ✓</text>
</a>
</g>
</g>
<!-- CC_GROUP&#45;&gt;CC -->
<g id="edge9" class="edge">
<title>CC_GROUP&#45;&gt;CC</title>
<path fill="none" stroke="black" d="M401.96,-366.61C402.59,-355.53 403.42,-340.76 404.16,-327.49"/>
<polygon fill="black" stroke="black" points="407.64,-328.05 404.71,-317.87 400.65,-327.66 407.64,-328.05"/>
</g>
<!-- GW -->
<g id="node4" class="node">
<title>GW</title>
<g id="a_node4"><a xlink:href="simple_encyclopedia_example.html#global_warming" xlink:title="Global Warming\nQ7942\nWikipedia ✓">
<path fill="lightyellow" stroke="black" d="M684.5,-315.88C684.5,-315.88 623.5,-315.88 623.5,-315.88 617.5,-315.88 611.5,-309.88 611.5,-303.88 611.5,-303.88 611.5,-283.88 611.5,-283.88 611.5,-277.88 617.5,-271.88 623.5,-271.88 623.5,-271.88 684.5,-271.88 684.5,-271.88 690.5,-271.88 696.5,-277.88 696.5,-283.88 696.5,-283.88 696.5,-303.88 696.5,-303.88 696.5,-309.88 690.5,-315.88 684.5,-315.88"/>
<text xml:space="preserve" text-anchor="middle" x="654" y="-302.38" font-family="Arial" font-size="10.00">Global Warming</text>
<text xml:space="preserve" text-anchor="middle" x="654" y="-290.38" font-family="Arial" font-size="10.00">Q7942</text>
<text xml:space="preserve" text-anchor="middle" x="654" y="-278.38" font-family="Arial" font-size="10.00">Wikipedia ✓</text>
</a>
</g>
</g>
<!-- CC_GROUP&#45;&gt;GW -->
<g id="edge10" class="edge">
<title>CC_GROUP&#45;&gt;GW</title>
<path fill="none" stroke="black" d="M448.25,-366.26C451.55,-365.07 454.82,-363.89 458,-362.75 506.04,-345.58 560.94,-326.63 600.39,-313.12"/>
<polygon fill="black" stroke="black" points="601.33,-316.5 609.66,-309.95 599.07,-309.88 601.33,-316.5"/>
</g>
<!-- CC&#45;&gt;GHG -->
<g id="edge13" class="edge">
<title>CC&#45;&gt;GHG</title>
<path fill="none" stroke="gray" stroke-dasharray="5,2" d="M396.75,-271.59C383.14,-240.31 357.65,-181.68 341.82,-145.28"/>
<polygon fill="gray" stroke="gray" points="345.04,-143.92 337.85,-136.14 338.62,-146.71 345.04,-143.92"/>
<text xml:space="preserve" text-anchor="middle" x="390.28" y="-199.7" font-family="Arial" font-size="9.00">links to</text>
</g>
<!-- CC&#45;&gt;FF -->
<g id="edge14" class="edge">
<title>CC&#45;&gt;FF</title>
<path fill="none" stroke="gray" stroke-dasharray="5,2" d="M404.31,-271.43C404.47,-262.2 405.9,-251.58 410.5,-243 412.34,-239.56 414.63,-236.32 417.2,-233.28"/>
<polygon fill="gray" stroke="gray" points="419.48,-235.95 423.99,-226.37 414.49,-231.05 419.48,-235.95"/>
<text xml:space="preserve" text-anchor="middle" x="424.75" y="-244.95" font-family="Arial" font-size="9.00">links to</text>
</g>
<!-- GW&#45;&gt;GHG -->
<g id="edge15" class="edge">
<title>GW&#45;&gt;GHG</title>
<path fill="none" stroke="gray" stroke-dasharray="5,2" d="M629.32,-271.46C618.65,-262.44 605.9,-251.97 594,-243 554.92,-213.55 545.95,-204.47 503,-181 474.6,-165.48 466.12,-164.33 436,-152.5 419.18,-145.89 400.73,-139.07 383.92,-133.02"/>
<polygon fill="gray" stroke="gray" points="385.16,-129.75 374.56,-129.68 382.8,-136.34 385.16,-129.75"/>
<text xml:space="preserve" text-anchor="middle" x="584.05" y="-199.7" font-family="Arial" font-size="9.00">links to</text>
</g>
<!-- CO2 -->
<g id="node6" class="node">
<title>CO2</title>
<g id="a_node6"><a xlink:href="simple_encyclopedia_example.html#carbon_dioxide" xlink:title="Carbon Dioxide\nQ1218\nWikipedia ✓">
<path fill="lightyellow" stroke="black" d="M239.75,-315.88C239.75,-315.88 180.25,-315.88 180.25,-315.88 174.25,-315.88 168.25,-309.88 168.25,-303.88 168.25,-303.88 168.25,-283.88 168.25,-283.88 168.25,-277.88 174.25,-271.88 180.25,-271.88 180.25,-271.88 239.75,-271.88 239.75,-271.88 245.75,-271.88 251.75,-277.88 251.75,-283.88 251.75,-283.88 251.75,-303.88 251.75,-303.88 251.75,-309.88 245.75,-315.88 239.75,-315.88"/>
<text xml:space="preserve" text-anchor="middle" x="210" y="-302.38" font-family="Arial" font-size="10.00">Carbon Dioxide</text>
<text xml:space="preserve" text-anchor="middle" x="210" y="-290.38" font-family="Arial" font-size="10.00">Q1218</text>
<text xml:space="preserve" text-anchor="middle" x="210" y="-278.38" font-family="Arial" font-size="10.00">Wikipedia ✓</text>
</a>
</g>
</g>
<!-- CO2_GROUP&#45;&gt;CO2 -->
<g id="edge11" class="edge">
<title>CO2_GROUP&#45;&gt;CO2</title>
<path fill="none" stroke="black" d="M131.7,-366.61C144.89,-354.53 162.89,-338.04 178.3,-323.92"/>
<polygon fill="black" stroke="black" points="180.43,-326.72 185.43,-317.38 175.7,-321.56 180.43,-326.72"/>
</g>
<!-- CO2_FORMULA -->
<g id="node7" class="node">
<title>CO2_FORMULA</title>
<g id="a_node7"><a xlink:href="simple_encyclopedia_example.html#co2" xlink:title="CO₂\nQ1218\nWikipedia ✓">
<path fill="lightyellow" stroke="black" d="M135.62,-316.25C135.62,-316.25 90.38,-316.25 90.38,-316.25 84.38,-316.25 78.38,-310.25 78.38,-304.25 78.38,-304.25 78.38,-283.5 78.38,-283.5 78.38,-277.5 84.38,-271.5 90.38,-271.5 90.38,-271.5 135.62,-271.5 135.62,-271.5 141.62,-271.5 147.62,-277.5 147.62,-283.5 147.62,-283.5 147.62,-304.25 147.62,-304.25 147.62,-310.25 141.62,-316.25 135.62,-316.25"/>
<text xml:space="preserve" text-anchor="middle" x="113" y="-302.75" font-family="Arial" font-size="10.00">CO₂</text>
<text xml:space="preserve" text-anchor="middle" x="113" y="-290" font-family="Arial" font-size="10.00">Q1218</text>
<text xml:space="preserve" text-anchor="middle" x="113" y="-278" font-family="Arial" font-size="10.00">Wikipedia ✓</text>
</a>
</g>
</g>
<!-- CO2_GROUP&#45;&gt;CO2_FORMULA -->
<g id="edge12" class="edge">
<title>CO2_GROUP&#45;&gt;CO2_FORMULA</title>
<path fill="none" stroke="black" d="M113,-366.61C113,-355.72 113,-341.26 113,-328.18"/>
<polygon fill="black" stroke="black" points="116.5,-328.2 113,-318.2 109.5,-328.2 116.5,-328.2"/>
</g>
<!-- CO2&#45;&gt;CC -->
<g id="edge18" class="edge">
<title>CO2&#45;&gt;CC</title>
<path fill="none" stroke="gray" stroke-dasharray="5,2" d="M252.05,-293.88C281,-293.88 319.75,-293.88 351.13,-293.88"/>
<polygon fill="gray" stroke="gray" points="350.81,-297.38 360.81,-293.88 350.81,-290.38 350.81,-297.38"/>
<text xml:space="preserve" text-anchor="middle" x="307.25" y="-298.82" font-family="Arial" font-size="9.00">links to</text>
</g>
<!-- CO2&#45;&gt;GHG -->
<g id="edge17" class="edge">
<title>CO2&#45;&gt;GHG</title>
<path fill="none" stroke="gray" stroke-dasharray="5,2" d="M211.81,-271.41C214.56,-247.91 221.3,-209.75 237.5,-181 246.59,-164.88 261.28,-151.47 276.21,-140.96"/>
<polygon fill="gray" stroke="gray" points="277.83,-144.08 284.22,-135.63 273.96,-138.25 277.83,-144.08"/>
<text xml:space="preserve" text-anchor="middle" x="251.75" y="-199.7" font-family="Arial" font-size="9.00">links to</text>
</g>
<!-- GHG&#45;&gt;GE -->
<g id="edge16" class="edge">
<title>GHG&#45;&gt;GE</title>
<path fill="none" stroke="gray" stroke-dasharray="5,2" d="M311.69,-90.26C308.33,-84.76 305.27,-78.65 303.5,-72.5 301.77,-66.51 302.51,-60.37 304.56,-54.55"/>
<polygon fill="gray" stroke="gray" points="307.55,-56.38 308.77,-45.86 301.26,-53.33 307.55,-56.38"/>
<text xml:space="preserve" text-anchor="middle" x="317.75" y="-63.95" font-family="Arial" font-size="9.00">links to</text>
</g>
<!-- FF&#45;&gt;CC -->
<g id="edge21" class="edge">
<title>FF&#45;&gt;CC</title>
<path fill="none" stroke="gray" stroke-dasharray="5,2" d="M452.03,-225.41C448.68,-234.39 444.25,-244.76 439,-253.5 437.12,-256.64 434.99,-259.78 432.75,-262.84"/>
<polygon fill="gray" stroke="gray" points="430.14,-260.5 426.73,-270.53 435.65,-264.81 430.14,-260.5"/>
<text xml:space="preserve" text-anchor="middle" x="458.76" y="-244.95" font-family="Arial" font-size="9.00">links to</text>
</g>
<!-- FF&#45;&gt;CO2 -->
<g id="edge19" class="edge">
<title>FF&#45;&gt;CO2</title>
<path fill="none" stroke="gray" stroke-dasharray="5,2" d="M423.88,-219.11C418.91,-221.14 413.84,-223.16 409,-225 360.03,-243.61 303.43,-262.68 263.14,-275.85"/>
<polygon fill="gray" stroke="gray" points="262.09,-272.51 253.67,-278.94 264.26,-279.17 262.09,-272.51"/>
<text xml:space="preserve" text-anchor="middle" x="369.01" y="-244.95" font-family="Arial" font-size="9.00">links to</text>
</g>
<!-- FF&#45;&gt;GHG -->
<g id="edge20" class="edge">
<title>FF&#45;&gt;GHG</title>
<path fill="none" stroke="gray" stroke-dasharray="5,2" d="M430.07,-180.65C417.82,-171.77 403.34,-161.47 390,-152.5 384.32,-148.68 378.29,-144.75 372.31,-140.91"/>
<polygon fill="gray" stroke="gray" points="374.59,-138.22 364.28,-135.81 370.84,-144.12 374.59,-138.22"/>
<text xml:space="preserve" text-anchor="middle" x="417.66" y="-154.45" font-family="Arial" font-size="9.00">links to</text>
</g>
<!-- GE&#45;&gt;GW -->
<g id="edge23" class="edge">
<title>GE&#45;&gt;GW</title>
<path fill="none" stroke="gray" stroke-dasharray="5,2" d="M376.8,-40.47C436.75,-64.1 538.31,-111.44 602,-181 622.98,-203.91 636.88,-236.77 644.98,-260.95"/>
<polygon fill="gray" stroke="gray" points="641.58,-261.8 647.95,-270.27 648.25,-259.68 641.58,-261.8"/>
<text xml:space="preserve" text-anchor="middle" x="597.83" y="-154.45" font-family="Arial" font-size="9.00">links to</text>
</g>
<!-- GE&#45;&gt;GHG -->
<g id="edge22" class="edge">
<title>GE&#45;&gt;GHG</title>
<path fill="none" stroke="gray" stroke-dasharray="5,2" d="M330.94,-44.18C331.84,-52.94 332.48,-63.2 332,-72.5 331.9,-74.55 331.76,-76.66 331.6,-78.79"/>
<polygon fill="gray" stroke="gray" points="328.13,-78.3 330.73,-88.57 335.1,-78.92 328.13,-78.3"/>
<text xml:space="preserve" text-anchor="middle" x="346.41" y="-63.95" font-family="Arial" font-size="9.00">links to</text>
</g>
<!-- CH4&#45;&gt;CO2 -->
<g id="edge25" class="edge">
<title>CH4&#45;&gt;CO2</title>
<path fill="none" stroke="gray" stroke-dasharray="5,2" d="M212.29,-362.69C211.93,-352.14 211.49,-339.13 211.1,-327.34"/>
<polygon fill="gray" stroke="gray" points="214.6,-327.48 210.77,-317.61 207.61,-327.72 214.6,-327.48"/>
<text xml:space="preserve" text-anchor="middle" x="225.93" y="-336.2" font-family="Arial" font-size="9.00">links to</text>
</g>
<!-- CH4&#45;&gt;GHG -->
<g id="edge24" class="edge">
<title>CH4&#45;&gt;GHG</title>
<path fill="none" stroke="gray" stroke-dasharray="5,2" d="M231.5,-362.26C241.54,-349.6 253.41,-332.86 261,-316.25 287.5,-258.24 308.64,-186.65 319.65,-145.92"/>
<polygon fill="gray" stroke="gray" points="323.03,-146.82 322.23,-136.26 316.27,-145.02 323.03,-146.82"/>
<text xml:space="preserve" text-anchor="middle" x="303.47" y="-244.95" font-family="Arial" font-size="9.00">links to</text>
</g>
<!-- RE&#45;&gt;CC -->
<g id="edge26" class="edge">
<title>RE&#45;&gt;CC</title>
<path fill="none" stroke="gray" stroke-dasharray="5,2" d="M489.65,-362.46C475.2,-350.79 457.09,-336.15 441.41,-323.49"/>
<polygon fill="gray" stroke="gray" points="443.67,-320.81 433.69,-317.25 439.27,-326.26 443.67,-320.81"/>
<text xml:space="preserve" text-anchor="middle" x="481.84" y="-336.2" font-family="Arial" font-size="9.00">links to</text>
</g>
<!-- RE&#45;&gt;FF -->
<g id="edge27" class="edge">
<title>RE&#45;&gt;FF</title>
<path fill="none" stroke="gray" stroke-dasharray="5,2" d="M511.23,-362.43C504.74,-334.56 492.18,-284.42 477,-243 476.12,-240.61 475.16,-238.17 474.15,-235.72"/>
<polygon fill="gray" stroke="gray" points="477.37,-234.33 470.15,-226.58 470.95,-237.14 477.37,-234.33"/>
<text xml:space="preserve" text-anchor="middle" x="513.55" y="-290.57" font-family="Arial" font-size="9.00">links to</text>
</g>
<!-- IPCC&#45;&gt;CC -->
<g id="edge28" class="edge">
<title>IPCC&#45;&gt;CC</title>
<path fill="none" stroke="gray" stroke-dasharray="5,2" d="M326.15,-362.46C339.95,-350.79 357.24,-336.15 372.2,-323.49"/>
<polygon fill="gray" stroke="gray" points="374.16,-326.41 379.54,-317.27 369.64,-321.06 374.16,-326.41"/>
<text xml:space="preserve" text-anchor="middle" x="370.9" y="-336.2" font-family="Arial" font-size="9.00">links to</text>
</g>
</g>
</svg>
