<?xml version="1.0" encoding="UTF-8" standalone="no"?>
<!DOCTYPE svg PUBLIC "-//W3C//DTD SVG 1.1//EN"
 "http://www.w3.org/Graphics/SVG/1.1/DTD/svg11.dtd">
<!-- Generated by graphviz version 13.1.0 (20250701.0955)
 -->
<!-- Title: capabilities_pipeline Pages: 1 -->
<svg width="511pt" height="1032pt"
 viewBox="0.00 0.00 511.00 1032.00" xmlns="http://www.w3.org/2000/svg" xmlns:xlink="http://www.w3.org/1999/xlink">
<g id="graph0" class="graph" transform="scale(1 1) rotate(0) translate(4 1028)">
<title>capabilities_pipeline</title>
<polygon fill="white" stroke="none" points="-4,4 -4,-1028 506.62,-1028 506.62,4 -4,4"/>
<!-- INPUT -->
<g id="node1" class="node">
<title>INPUT</title>
<path fill="lightblue" stroke="black" d="M265.88,-1024C265.88,-1024 210.12,-1024 210.12,-1024 204.12,-1024 198.12,-1018 198.12,-1012 198.12,-1012 198.12,-980 198.12,-980 198.12,-974 204.12,-968 210.12,-968 210.12,-968 265.88,-968 265.88,-968 271.88,-968 277.88,-974 277.88,-980 277.88,-980 277.88,-1012 277.88,-1012 277.88,-1018 271.88,-1024 265.88,-1024"/>
<text xml:space="preserve" text-anchor="middle" x="238" y="-1010.5" font-family="Arial" font-size="10.00">Input</text>
<text xml:space="preserve" text-anchor="middle" x="238" y="-998.5" font-family="Arial" font-size="10.00">• Terms/Words</text>
<text xml:space="preserve" text-anchor="middle" x="238" y="-986.5" font-family="Arial" font-size="10.00">• Documents</text>
<text xml:space="preserve" text-anchor="middle" x="238" y="-974.5" font-family="Arial" font-size="10.00">• CSV files</text>
</g>
<!-- KEYWORD_EXTRACT -->
<g id="node2" class="node">
<title>KEYWORD_EXTRACT</title>
<path fill="lightgreen" stroke="black" d="M329,-932C329,-932 235,-932 235,-932 229,-932 223,-926 223,-920 223,-920 223,-876 223,-876 223,-870 229,-864 235,-864 235,-864 329,-864 329,-864 335,-864 341,-870 341,-876 341,-876 341,-920 341,-920 341,-926 335,-932 329,-932"/>
<text xml:space="preserve" text-anchor="middle" x="282" y="-918.5" font-family="Arial" font-size="10.00">Keyword Extraction</text>
<text xml:space="preserve" text-anchor="middle" x="282" y="-906.5" font-family="Arial" font-size="10.00">(Keyword_extraction/)</text>
<text xml:space="preserve" text-anchor="middle" x="282" y="-894.5" font-family="Arial" font-size="10.00">• AI&#45;powered extraction</text>
<text xml:space="preserve" text-anchor="middle" x="282" y="-882.5" font-family="Arial" font-size="10.00">• Hugging Face models</text>
<text xml:space="preserve" text-anchor="middle" x="282" y="-870.5" font-family="Arial" font-size="10.00">• CSV output</text>
</g>
<!-- INPUT&#45;&gt;KEYWORD_EXTRACT -->
<g id="edge1" class="edge">
<title>INPUT&#45;&gt;KEYWORD_EXTRACT</title>
<path fill="none" stroke="black" d="M250.49,-967.75C254.07,-959.94 258.06,-951.24 261.97,-942.71"/>
<polygon fill="black" stroke="black" points="265.04,-944.4 266.03,-933.85 258.68,-941.48 265.04,-944.4"/>
</g>
<!-- CREATE_DICT -->
<g id="node3" class="node">
<title>CREATE_DICT</title>
<path fill="lightyellow" stroke="black" d="M229.25,-828C229.25,-828 160.75,-828 160.75,-828 154.75,-828 148.75,-822 148.75,-816 148.75,-816 148.75,-784 148.75,-784 148.75,-778 154.75,-772 160.75,-772 160.75,-772 229.25,-772 229.25,-772 235.25,-772 241.25,-778 241.25,-784 241.25,-784 241.25,-816 241.25,-816 241.25,-822 235.25,-828 229.25,-828"/>
<text xml:space="preserve" text-anchor="middle" x="195" y="-814.5" font-family="Arial" font-size="10.00">Create Dictionary</text>
<text xml:space="preserve" text-anchor="middle" x="195" y="-802.5" font-family="Arial" font-size="10.00">(amilib.ami_dict)</text>
<text xml:space="preserve" text-anchor="middle" x="195" y="-790.5" font-family="Arial" font-size="10.00">• Basic structure</text>
<text xml:space="preserve" text-anchor="middle" x="195" y="-778.5" font-family="Arial" font-size="10.00">• Entry elements</text>
</g>
<!-- INPUT&#45;&gt;CREATE_DICT -->
<g id="edge2" class="edge">
<title>INPUT&#45;&gt;CREATE_DICT</title>
<path fill="none" stroke="black" d="M226.02,-967.52C221.68,-956.63 217.09,-943.9 214,-932 206.09,-901.52 201.2,-866.14 198.37,-839.84"/>
<polygon fill="black" stroke="black" points="201.86,-839.54 197.36,-829.95 194.89,-840.25 201.86,-839.54"/>
</g>
<!-- KEYWORD_EXTRACT&#45;&gt;CREATE_DICT -->
<g id="edge4" class="edge">
<title>KEYWORD_EXTRACT&#45;&gt;CREATE_DICT</title>
<path fill="none" stroke="black" d="M251.82,-863.69C243.86,-854.91 235.24,-845.4 227.18,-836.51"/>
<polygon fill="black" stroke="black" points="229.99,-834.39 220.68,-829.34 224.8,-839.1 229.99,-834.39"/>
</g>
<!-- OUTPUT_KEYWORDS -->
<g id="node15" class="node">
<title>OUTPUT_KEYWORDS</title>
<path fill="lightcyan" stroke="black" d="M361.25,-246C361.25,-246 292.75,-246 292.75,-246 286.75,-246 280.75,-240 280.75,-234 280.75,-234 280.75,-214 280.75,-214 280.75,-208 286.75,-202 292.75,-202 292.75,-202 361.25,-202 361.25,-202 367.25,-202 373.25,-208 373.25,-214 373.25,-214 373.25,-234 373.25,-234 373.25,-240 367.25,-246 361.25,-246"/>
<text xml:space="preserve" text-anchor="middle" x="327" y="-232.5" font-family="Arial" font-size="10.00">Keywords CSV</text>
<text xml:space="preserve" text-anchor="middle" x="327" y="-220.5" font-family="Arial" font-size="10.00">• Extracted terms</text>
<text xml:space="preserve" text-anchor="middle" x="327" y="-208.5" font-family="Arial" font-size="10.00">• Frequency data</text>
</g>
<!-- KEYWORD_EXTRACT&#45;&gt;OUTPUT_KEYWORDS -->
<g id="edge3" class="edge">
<title>KEYWORD_EXTRACT&#45;&gt;OUTPUT_KEYWORDS</title>
<path fill="none" stroke="black" d="M294.65,-863.55C307.96,-825.32 327,-760.57 327,-703 327,-703 327,-703 327,-407 327,-354.77 327,-294.1 327,-257.67"/>
<polygon fill="black" stroke="black" points="330.5,-257.81 327,-247.81 323.5,-257.81 330.5,-257.81"/>
</g>
<!-- ADD_WIKIPEDIA -->
<g id="node4" class="node">
<title>ADD_WIKIPEDIA</title>
<path fill="lightyellow" stroke="black" d="M76,-736C76,-736 12,-736 12,-736 6,-736 0,-730 0,-724 0,-724 0,-680 0,-680 0,-674 6,-668 12,-668 12,-668 76,-668 76,-668 82,-668 88,-674 88,-680 88,-680 88,-724 88,-724 88,-730 82,-736 76,-736"/>
<text xml:space="preserve" text-anchor="middle" x="44" y="-722.5" font-family="Arial" font-size="10.00">Add Wikipedia</text>
<text xml:space="preserve" text-anchor="middle" x="44" y="-710.5" font-family="Arial" font-size="10.00">(amilib.ami_dict)</text>
<text xml:space="preserve" text-anchor="middle" x="44" y="-698.5" font-family="Arial" font-size="10.00">• Page lookup</text>
<text xml:space="preserve" text-anchor="middle" x="44" y="-686.5" font-family="Arial" font-size="10.00">• First paragraph</text>
<text xml:space="preserve" text-anchor="middle" x="44" y="-674.5" font-family="Arial" font-size="10.00">• URLs</text>
</g>
<!-- CREATE_DICT&#45;&gt;ADD_WIKIPEDIA -->
<g id="edge5" class="edge">
<title>CREATE_DICT&#45;&gt;ADD_WIKIPEDIA</title>
<path fill="none" stroke="black" d="M152.13,-771.75C135.29,-761.04 115.75,-748.62 97.96,-737.31"/>
<polygon fill="black" stroke="black" points="99.88,-734.38 89.57,-731.97 96.13,-740.29 99.88,-734.38"/>
</g>
<!-- ADD_WIKIDATA -->
<g id="node5" class="node">
<title>ADD_WIKIDATA</title>
<path fill="lightyellow" stroke="black" d="M181.62,-736C181.62,-736 118.38,-736 118.38,-736 112.38,-736 106.38,-730 106.38,-724 106.38,-724 106.38,-680 106.38,-680 106.38,-674 112.38,-668 118.38,-668 118.38,-668 181.62,-668 181.62,-668 187.62,-668 193.62,-674 193.62,-680 193.62,-680 193.62,-724 193.62,-724 193.62,-730 187.62,-736 181.62,-736"/>
<text xml:space="preserve" text-anchor="middle" x="150" y="-722.5" font-family="Arial" font-size="10.00">Add Wikidata</text>
<text xml:space="preserve" text-anchor="middle" x="150" y="-710.5" font-family="Arial" font-size="10.00">(amilib.ami_dict)</text>
<text xml:space="preserve" text-anchor="middle" x="150" y="-698.5" font-family="Arial" font-size="10.00">• ID lookup</text>
<text xml:space="preserve" text-anchor="middle" x="150" y="-686.5" font-family="Arial" font-size="10.00">• Categories</text>
<text xml:space="preserve" text-anchor="middle" x="150" y="-674.5" font-family="Arial" font-size="10.00">• Descriptions</text>
</g>
<!-- CREATE_DICT&#45;&gt;ADD_WIKIDATA -->
<g id="edge6" class="edge">
<title>CREATE_DICT&#45;&gt;ADD_WIKIDATA</title>
<path fill="none" stroke="black" d="M182.23,-771.75C178.57,-763.94 174.49,-755.24 170.49,-746.71"/>
<polygon fill="black" stroke="black" points="173.75,-745.41 166.33,-737.84 167.41,-748.38 173.75,-745.41"/>
</g>
<!-- ADD_WIKTIONARY -->
<g id="node6" class="node">
<title>ADD_WIKTIONARY</title>
<path fill="lightyellow" stroke="black" d="M286.62,-724C286.62,-724 223.38,-724 223.38,-724 217.38,-724 211.38,-718 211.38,-712 211.38,-712 211.38,-692 211.38,-692 211.38,-686 217.38,-680 223.38,-680 223.38,-680 286.62,-680 286.62,-680 292.62,-680 298.62,-686 298.62,-692 298.62,-692 298.62,-712 298.62,-712 298.62,-718 292.62,-724 286.62,-724"/>
<text xml:space="preserve" text-anchor="middle" x="255" y="-710.5" font-family="Arial" font-size="10.00">Add Wiktionary</text>
<text xml:space="preserve" text-anchor="middle" x="255" y="-698.5" font-family="Arial" font-size="10.00">(amilib.ami_dict)</text>
<text xml:space="preserve" text-anchor="middle" x="255" y="-686.5" font-family="Arial" font-size="10.00">• Definitions</text>
</g>
<!-- CREATE_DICT&#45;&gt;ADD_WIKTIONARY -->
<g id="edge7" class="edge">
<title>CREATE_DICT&#45;&gt;ADD_WIKTIONARY</title>
<path fill="none" stroke="black" d="M212.03,-771.75C219.4,-759.97 228.05,-746.12 235.65,-733.96"/>
<polygon fill="black" stroke="black" points="238.61,-735.83 240.94,-725.5 232.67,-732.12 238.61,-735.83"/>
</g>
<!-- HTML_DICT -->
<g id="node7" class="node">
<title>HTML_DICT</title>
<path fill="lightcoral" stroke="black" d="M189.62,-632C189.62,-632 114.38,-632 114.38,-632 108.38,-632 102.38,-626 102.38,-620 102.38,-620 102.38,-588 102.38,-588 102.38,-582 108.38,-576 114.38,-576 114.38,-576 189.62,-576 189.62,-576 195.62,-576 201.62,-582 201.62,-588 201.62,-588 201.62,-620 201.62,-620 201.62,-626 195.62,-632 189.62,-632"/>
<text xml:space="preserve" text-anchor="middle" x="152" y="-618.5" font-family="Arial" font-size="10.00">HTML Dictionary</text>
<text xml:space="preserve" text-anchor="middle" x="152" y="-606.5" font-family="Arial" font-size="10.00">(amilib.ami_dict)</text>
<text xml:space="preserve" text-anchor="middle" x="152" y="-594.5" font-family="Arial" font-size="10.00">• Structured HTML</text>
<text xml:space="preserve" text-anchor="middle" x="152" y="-582.5" font-family="Arial" font-size="10.00">• Semantic markup</text>
</g>
<!-- ADD_WIKIPEDIA&#45;&gt;HTML_DICT -->
<g id="edge8" class="edge">
<title>ADD_WIKIPEDIA&#45;&gt;HTML_DICT</title>
<path fill="none" stroke="black" d="M81.47,-667.69C91.66,-658.64 102.71,-648.81 112.98,-639.69"/>
<polygon fill="black" stroke="black" points="115.1,-642.48 120.25,-633.22 110.45,-637.25 115.1,-642.48"/>
</g>
<!-- ADD_WIKIDATA&#45;&gt;HTML_DICT -->
<g id="edge9" class="edge">
<title>ADD_WIKIDATA&#45;&gt;HTML_DICT</title>
<path fill="none" stroke="black" d="M150.69,-667.69C150.86,-659.91 151.03,-651.55 151.2,-643.56"/>
<polygon fill="black" stroke="black" points="154.69,-643.8 151.4,-633.73 147.69,-643.65 154.69,-643.8"/>
</g>
<!-- ADD_WIKTIONARY&#45;&gt;HTML_DICT -->
<g id="edge10" class="edge">
<title>ADD_WIKTIONARY&#45;&gt;HTML_DICT</title>
<path fill="none" stroke="black" d="M232.14,-679.69C219.66,-668.06 203.88,-653.35 189.63,-640.07"/>
<polygon fill="black" stroke="black" points="192.26,-637.74 182.56,-633.49 187.49,-642.86 192.26,-637.74"/>
</g>
<!-- CREATE_ENCYCLOPEDIA -->
<g id="node8" class="node">
<title>CREATE_ENCYCLOPEDIA</title>
<path fill="lightpink" stroke="black" d="M195.38,-540C195.38,-540 112.62,-540 112.62,-540 106.62,-540 100.62,-534 100.62,-528 100.62,-528 100.62,-484 100.62,-484 100.62,-478 106.62,-472 112.62,-472 112.62,-472 195.38,-472 195.38,-472 201.38,-472 207.38,-478 207.38,-484 207.38,-484 207.38,-528 207.38,-528 207.38,-534 201.38,-540 195.38,-540"/>
<text xml:space="preserve" text-anchor="middle" x="154" y="-526.5" font-family="Arial" font-size="10.00">Create Encyclopedia</text>
<text xml:space="preserve" text-anchor="middle" x="154" y="-514.5" font-family="Arial" font-size="10.00">(encyclopedia.core)</text>
<text xml:space="preserve" text-anchor="middle" x="154" y="-502.5" font-family="Arial" font-size="10.00">• Parse HTML</text>
<text xml:space="preserve" text-anchor="middle" x="154" y="-490.5" font-family="Arial" font-size="10.00">• Extract entries</text>
<text xml:space="preserve" text-anchor="middle" x="154" y="-478.5" font-family="Arial" font-size="10.00">• Extract metadata</text>
</g>
<!-- HTML_DICT&#45;&gt;CREATE_ENCYCLOPEDIA -->
<g id="edge11" class="edge">
<title>HTML_DICT&#45;&gt;CREATE_ENCYCLOPEDIA</title>
<path fill="none" stroke="black" d="M152.57,-575.75C152.72,-568.29 152.9,-560 153.07,-551.83"/>
<polygon fill="black" stroke="black" points="156.56,-552.05 153.27,-541.98 149.56,-551.91 156.56,-552.05"/>
</g>
<!-- NORMALIZE -->
<g id="node9" class="node">
<title>NORMALIZE</title>
<path fill="lightsteelblue" stroke="black" d="M232.25,-436C232.25,-436 127.75,-436 127.75,-436 121.75,-436 115.75,-430 115.75,-424 115.75,-424 115.75,-392 115.75,-392 115.75,-386 121.75,-380 127.75,-380 127.75,-380 232.25,-380 232.25,-380 238.25,-380 244.25,-386 244.25,-392 244.25,-392 244.25,-424 244.25,-424 244.25,-430 238.25,-436 232.25,-436"/>
<text xml:space="preserve" text-anchor="middle" x="180" y="-422.5" font-family="Arial" font-size="10.00">Normalize by Wikidata ID</text>
<text xml:space="preserve" text-anchor="middle" x="180" y="-410.5" font-family="Arial" font-size="10.00">(encyclopedia.core)</text>
<text xml:space="preserve" text-anchor="middle" x="180" y="-398.5" font-family="Arial" font-size="10.00">• Group synonyms</text>
<text xml:space="preserve" text-anchor="middle" x="180" y="-386.5" font-family="Arial" font-size="10.00">• Identify duplicates</text>
</g>
<!-- CREATE_ENCYCLOPEDIA&#45;&gt;NORMALIZE -->
<g id="edge12" class="edge">
<title>CREATE_ENCYCLOPEDIA&#45;&gt;NORMALIZE</title>
<path fill="none" stroke="black" d="M163.02,-471.69C165.15,-463.82 167.45,-455.36 169.63,-447.28"/>
<polygon fill="black" stroke="black" points="173,-448.24 172.23,-437.67 166.24,-446.41 173,-448.24"/>
</g>
<!-- MERGE -->
<g id="node10" class="node">
<title>MERGE</title>
<path fill="lightsteelblue" stroke="black" d="M245.25,-344C245.25,-344 140.75,-344 140.75,-344 134.75,-344 128.75,-338 128.75,-332 128.75,-332 128.75,-300 128.75,-300 128.75,-294 134.75,-288 140.75,-288 140.75,-288 245.25,-288 245.25,-288 251.25,-288 257.25,-294 257.25,-300 257.25,-300 257.25,-332 257.25,-332 257.25,-338 251.25,-344 245.25,-344"/>
<text xml:space="preserve" text-anchor="middle" x="193" y="-330.5" font-family="Arial" font-size="10.00">Merge Synonyms</text>
<text xml:space="preserve" text-anchor="middle" x="193" y="-318.5" font-family="Arial" font-size="10.00">(encyclopedia.core)</text>
<text xml:space="preserve" text-anchor="middle" x="193" y="-306.5" font-family="Arial" font-size="10.00">• Aggregate terms</text>
<text xml:space="preserve" text-anchor="middle" x="193" y="-294.5" font-family="Arial" font-size="10.00">• Create canonical entries</text>
</g>
<!-- NORMALIZE&#45;&gt;MERGE -->
<g id="edge13" class="edge">
<title>NORMALIZE&#45;&gt;MERGE</title>
<path fill="none" stroke="black" d="M183.97,-379.51C185.07,-371.92 186.28,-363.54 187.45,-355.45"/>
<polygon fill="black" stroke="black" points="190.87,-356.22 188.84,-345.82 183.94,-355.22 190.87,-356.22"/>
</g>
<!-- OUTPUT_ENCYCLOPEDIA -->
<g id="node13" class="node">
<title>OUTPUT_ENCYCLOPEDIA</title>
<path fill="lightcyan" stroke="black" d="M248.12,-252C248.12,-252 151.88,-252 151.88,-252 145.88,-252 139.88,-246 139.88,-240 139.88,-240 139.88,-208 139.88,-208 139.88,-202 145.88,-196 151.88,-196 151.88,-196 248.12,-196 248.12,-196 254.12,-196 260.12,-202 260.12,-208 260.12,-208 260.12,-240 260.12,-240 260.12,-246 254.12,-252 248.12,-252"/>
<text xml:space="preserve" text-anchor="middle" x="200" y="-238.5" font-family="Arial" font-size="10.00">Encyclopedia HTML</text>
<text xml:space="preserve" text-anchor="middle" x="200" y="-226.5" font-family="Arial" font-size="10.00">• Enhanced entries</text>
<text xml:space="preserve" text-anchor="middle" x="200" y="-214.5" font-family="Arial" font-size="10.00">• Normalized synonyms</text>
<text xml:space="preserve" text-anchor="middle" x="200" y="-202.5" font-family="Arial" font-size="10.00">• Wikipedia content</text>
</g>
<!-- MERGE&#45;&gt;OUTPUT_ENCYCLOPEDIA -->
<g id="edge14" class="edge">
<title>MERGE&#45;&gt;OUTPUT_ENCYCLOPEDIA</title>
<path fill="none" stroke="black" d="M195.14,-287.51C195.72,-280.01 196.37,-271.73 196.99,-263.73"/>
<polygon fill="black" stroke="black" points="200.47,-264.07 197.76,-253.83 193.49,-263.53 200.47,-264.07"/>
</g>
<!-- LINK_EXTRACT -->
<g id="node11" class="node">
<title>LINK_EXTRACT</title>
<path fill="wheat" stroke="black" d="M322.12,-160C322.12,-160 255.88,-160 255.88,-160 249.88,-160 243.88,-154 243.88,-148 243.88,-148 243.88,-116 243.88,-116 243.88,-110 249.88,-104 255.88,-104 255.88,-104 322.12,-104 322.12,-104 328.12,-104 334.12,-110 334.12,-116 334.12,-116 334.12,-148 334.12,-148 334.12,-154 328.12,-160 322.12,-160"/>
<text xml:space="preserve" text-anchor="middle" x="289" y="-146.5" font-family="Arial" font-size="10.00">Link Extraction</text>
<text xml:space="preserve" text-anchor="middle" x="289" y="-134.5" font-family="Arial" font-size="10.00">(test/text_links)</text>
<text xml:space="preserve" text-anchor="middle" x="289" y="-122.5" font-family="Arial" font-size="10.00">• Extract all links</text>
<text xml:space="preserve" text-anchor="middle" x="289" y="-110.5" font-family="Arial" font-size="10.00">• Classify types</text>
</g>
<!-- LINK_ANALYSIS -->
<g id="node12" class="node">
<title>LINK_ANALYSIS</title>
<path fill="wheat" stroke="black" d="M370.12,-68C370.12,-68 279.88,-68 279.88,-68 273.88,-68 267.88,-62 267.88,-56 267.88,-56 267.88,-12 267.88,-12 267.88,-6 273.88,0 279.88,0 279.88,0 370.12,0 370.12,0 376.12,0 382.12,-6 382.12,-12 382.12,-12 382.12,-56 382.12,-56 382.12,-62 376.12,-68 370.12,-68"/>
<text xml:space="preserve" text-anchor="middle" x="325" y="-54.5" font-family="Arial" font-size="10.00">Link Analysis</text>
<text xml:space="preserve" text-anchor="middle" x="325" y="-42.5" font-family="Arial" font-size="10.00">(test/text_links)</text>
<text xml:space="preserve" text-anchor="middle" x="325" y="-30.5" font-family="Arial" font-size="10.00">• Build graphs</text>
<text xml:space="preserve" text-anchor="middle" x="325" y="-18.5" font-family="Arial" font-size="10.00">• Find shared links</text>
<text xml:space="preserve" text-anchor="middle" x="325" y="-6.5" font-family="Arial" font-size="10.00">• Validate accessibility</text>
</g>
<!-- LINK_EXTRACT&#45;&gt;LINK_ANALYSIS -->
<g id="edge16" class="edge">
<title>LINK_EXTRACT&#45;&gt;LINK_ANALYSIS</title>
<path fill="none" stroke="black" d="M299.22,-103.75C302.11,-96.03 305.34,-87.43 308.5,-78.99"/>
<polygon fill="black" stroke="black" points="311.68,-80.48 311.92,-69.89 305.13,-78.02 311.68,-80.48"/>
</g>
<!-- OUTPUT_LINKS -->
<g id="node14" class="node">
<title>OUTPUT_LINKS</title>
<path fill="lightcyan" stroke="black" d="M490.62,-252C490.62,-252 403.38,-252 403.38,-252 397.38,-252 391.38,-246 391.38,-240 391.38,-240 391.38,-208 391.38,-208 391.38,-202 397.38,-196 403.38,-196 403.38,-196 490.62,-196 490.62,-196 496.62,-196 502.62,-202 502.62,-208 502.62,-208 502.62,-240 502.62,-240 502.62,-246 496.62,-252 490.62,-252"/>
<text xml:space="preserve" text-anchor="middle" x="447" y="-238.5" font-family="Arial" font-size="10.00">Link Analysis Reports</text>
<text xml:space="preserve" text-anchor="middle" x="447" y="-226.5" font-family="Arial" font-size="10.00">• JSON data</text>
<text xml:space="preserve" text-anchor="middle" x="447" y="-214.5" font-family="Arial" font-size="10.00">• HTML reports</text>
<text xml:space="preserve" text-anchor="middle" x="447" y="-202.5" font-family="Arial" font-size="10.00">• Graph visualizations</text>
</g>
<!-- LINK_ANALYSIS&#45;&gt;OUTPUT_LINKS -->
<g id="edge17" class="edge">
<title>LINK_ANALYSIS&#45;&gt;OUTPUT_LINKS</title>
<path fill="none" stroke="black" d="M346.68,-68.4C368.1,-101.42 400.82,-151.83 423.01,-186.04"/>
<polygon fill="black" stroke="black" points="420.06,-187.91 428.44,-194.39 425.93,-184.1 420.06,-187.91"/>
</g>
<!-- OUTPUT_ENCYCLOPEDIA&#45;&gt;LINK_EXTRACT -->
<g id="edge15" class="edge">
<title>OUTPUT_ENCYCLOPEDIA&#45;&gt;LINK_EXTRACT</title>
<path fill="none" stroke="black" d="M227.19,-195.51C235.64,-186.96 245.08,-177.41 253.99,-168.4"/>
<polygon fill="black" stroke="black" points="256.37,-170.97 260.92,-161.4 251.4,-166.05 256.37,-170.97"/>
</g>
</g>
</svg>
