<?xml version="1.0" encoding="UTF-8" standalone="no"?>
<!DOCTYPE svg PUBLIC "-//W3C//DTD SVG 1.1//EN"
 "http://www.w3.org/Graphics/SVG/1.1/DTD/svg11.dtd">
<!-- Generated by graphviz version 13.1.0 (20250701.0955)
 -->
<!-- Title: encyclopedia_pipeline Pages: 1 -->
<svg width="778pt" height="963pt"
 viewBox="0.00 0.00 778.00 963.00" xmlns="http://www.w3.org/2000/svg" xmlns:xlink="http://www.w3.org/1999/xlink">
<g id="graph0" class="graph" transform="scale(1 1) rotate(0) translate(4 959)">
<title>encyclopedia_pipeline</title>
<polygon fill="white" stroke="none" points="-4,4 -4,-959 774.25,-959 774.25,4 -4,4"/>
<!-- TERMS -->
<g id="node1" class="node">
<title>TERMS</title>
<path fill="lightblue" stroke="black" d="M449.62,-955C449.62,-955 348.12,-955 348.12,-955 342.12,-955 336.12,-949 336.12,-943 336.12,-943 336.12,-931 336.12,-931 336.12,-925 342.12,-919 348.12,-919 348.12,-919 449.62,-919 449.62,-919 455.62,-919 461.62,-925 461.62,-931 461.62,-931 461.62,-943 461.62,-943 461.62,-949 455.62,-955 449.62,-955"/>
<text xml:space="preserve" text-anchor="middle" x="398.88" y="-940.05" font-family="Arial" font-size="11.00">Terms/Words</text>
<text xml:space="preserve" text-anchor="middle" x="398.88" y="-926.55" font-family="Arial" font-size="11.00">(List of words/phrases)</text>
</g>
<!-- CREATE_DICT -->
<g id="node2" class="node">
<title>CREATE_DICT</title>
<path fill="lightgreen" stroke="black" d="M512.25,-883C512.25,-883 285.5,-883 285.5,-883 279.5,-883 273.5,-877 273.5,-871 273.5,-871 273.5,-819.5 273.5,-819.5 273.5,-813.5 279.5,-807.5 285.5,-807.5 285.5,-807.5 512.25,-807.5 512.25,-807.5 518.25,-807.5 524.25,-813.5 524.25,-819.5 524.25,-819.5 524.25,-871 524.25,-871 524.25,-877 518.25,-883 512.25,-883"/>
<text xml:space="preserve" text-anchor="middle" x="398.88" y="-868.55" font-family="Arial" font-size="11.00">1. Create Dictionary</text>
<text xml:space="preserve" text-anchor="middle" x="398.88" y="-855.05" font-family="Arial" font-size="11.00">(../amilib/ami_dict.create_dictionary_from_words)</text>
<text xml:space="preserve" text-anchor="middle" x="398.88" y="-841.55" font-family="Arial" font-size="11.00">• Create dictionary structure</text>
<text xml:space="preserve" text-anchor="middle" x="398.88" y="-828.05" font-family="Arial" font-size="11.00">• Add entries from terms</text>
<text xml:space="preserve" text-anchor="middle" x="398.88" y="-814.55" font-family="Arial" font-size="11.00">• Basic entry elements</text>
</g>
<!-- TERMS&#45;&gt;CREATE_DICT -->
<g id="edge1" class="edge">
<title>TERMS&#45;&gt;CREATE_DICT</title>
<path fill="none" stroke="black" d="M398.88,-918.7C398.88,-911.68 398.88,-903.2 398.88,-894.55"/>
<polygon fill="black" stroke="black" points="402.38,-894.71 398.88,-884.71 395.38,-894.71 402.38,-894.71"/>
</g>
<!-- ADD_WIKIPEDIA -->
<g id="node3" class="node">
<title>ADD_WIKIPEDIA</title>
<path fill="lightyellow" stroke="black" d="M253.75,-771.5C253.75,-771.5 12,-771.5 12,-771.5 6,-771.5 0,-765.5 0,-759.5 0,-759.5 0,-708 0,-708 0,-702 6,-696 12,-696 12,-696 253.75,-696 253.75,-696 259.75,-696 265.75,-702 265.75,-708 265.75,-708 265.75,-759.5 265.75,-759.5 265.75,-765.5 259.75,-771.5 253.75,-771.5"/>
<text xml:space="preserve" text-anchor="middle" x="132.88" y="-757.05" font-family="Arial" font-size="11.00">2a. Add Wikipedia</text>
<text xml:space="preserve" text-anchor="middle" x="132.88" y="-743.55" font-family="Arial" font-size="11.00">(../amilib/ami_dict.lookup_and_add_wikipedia_page)</text>
<text xml:space="preserve" text-anchor="middle" x="132.88" y="-730.05" font-family="Arial" font-size="11.00">• Lookup Wikipedia page</text>
<text xml:space="preserve" text-anchor="middle" x="132.88" y="-716.55" font-family="Arial" font-size="11.00">• Extract first paragraph</text>
<text xml:space="preserve" text-anchor="middle" x="132.88" y="-703.05" font-family="Arial" font-size="11.00">• Get Wikipedia URL</text>
</g>
<!-- CREATE_DICT&#45;&gt;ADD_WIKIPEDIA -->
<g id="edge2" class="edge">
<title>CREATE_DICT&#45;&gt;ADD_WIKIPEDIA</title>
<path fill="none" stroke="black" d="M308.45,-807.03C284.33,-797.1 258.13,-786.31 233.5,-776.17"/>
<polygon fill="black" stroke="black" points="235.03,-773.02 224.45,-772.45 232.37,-779.49 235.03,-773.02"/>
</g>
<!-- ADD_WIKIDATA -->
<g id="node4" class="node">
<title>ADD_WIKIDATA</title>
<path fill="lightyellow" stroke="black" d="M501.75,-771.5C501.75,-771.5 296,-771.5 296,-771.5 290,-771.5 284,-765.5 284,-759.5 284,-759.5 284,-708 284,-708 284,-702 290,-696 296,-696 296,-696 501.75,-696 501.75,-696 507.75,-696 513.75,-702 513.75,-708 513.75,-708 513.75,-759.5 513.75,-759.5 513.75,-765.5 507.75,-771.5 501.75,-771.5"/>
<text xml:space="preserve" text-anchor="middle" x="398.88" y="-757.05" font-family="Arial" font-size="11.00">2b. Add Wikidata</text>
<text xml:space="preserve" text-anchor="middle" x="398.88" y="-743.55" font-family="Arial" font-size="11.00">(../amilib/ami_dict.add_wikidata_from_terms)</text>
<text xml:space="preserve" text-anchor="middle" x="398.88" y="-730.05" font-family="Arial" font-size="11.00">• Lookup Wikidata ID</text>
<text xml:space="preserve" text-anchor="middle" x="398.88" y="-716.55" font-family="Arial" font-size="11.00">• Get Wikidata category</text>
<text xml:space="preserve" text-anchor="middle" x="398.88" y="-703.05" font-family="Arial" font-size="11.00">• Extract descriptions</text>
</g>
<!-- CREATE_DICT&#45;&gt;ADD_WIKIDATA -->
<g id="edge3" class="edge">
<title>CREATE_DICT&#45;&gt;ADD_WIKIDATA</title>
<path fill="none" stroke="black" d="M398.88,-807.18C398.88,-799.42 398.88,-791.13 398.88,-783.03"/>
<polygon fill="black" stroke="black" points="402.38,-783.3 398.88,-773.3 395.38,-783.3 402.38,-783.3"/>
</g>
<!-- ADD_WIKTIONARY -->
<g id="node5" class="node">
<title>ADD_WIKTIONARY</title>
<path fill="lightyellow" stroke="black" d="M758.25,-764.75C758.25,-764.75 543.5,-764.75 543.5,-764.75 537.5,-764.75 531.5,-758.75 531.5,-752.75 531.5,-752.75 531.5,-714.75 531.5,-714.75 531.5,-708.75 537.5,-702.75 543.5,-702.75 543.5,-702.75 758.25,-702.75 758.25,-702.75 764.25,-702.75 770.25,-708.75 770.25,-714.75 770.25,-714.75 770.25,-752.75 770.25,-752.75 770.25,-758.75 764.25,-764.75 758.25,-764.75"/>
<text xml:space="preserve" text-anchor="middle" x="650.88" y="-750.3" font-family="Arial" font-size="11.00">2c. Add Wiktionary</text>
<text xml:space="preserve" text-anchor="middle" x="650.88" y="-736.8" font-family="Arial" font-size="11.00">(../amilib/ami_dict.add_wiktionary_from_terms)</text>
<text xml:space="preserve" text-anchor="middle" x="650.88" y="-723.3" font-family="Arial" font-size="11.00">• Lookup Wiktionary page</text>
<text xml:space="preserve" text-anchor="middle" x="650.88" y="-709.8" font-family="Arial" font-size="11.00">• Extract definitions</text>
</g>
<!-- CREATE_DICT&#45;&gt;ADD_WIKTIONARY -->
<g id="edge4" class="edge">
<title>CREATE_DICT&#45;&gt;ADD_WIKTIONARY</title>
<path fill="none" stroke="black" d="M484.54,-807.03C512.38,-794.93 543.15,-781.56 570.58,-769.64"/>
<polygon fill="black" stroke="black" points="571.75,-772.95 579.52,-765.75 568.96,-766.53 571.75,-772.95"/>
</g>
<!-- CREATE_HTML_DICT -->
<g id="node6" class="node">
<title>CREATE_HTML_DICT</title>
<path fill="lightcoral" stroke="black" d="M493.88,-660C493.88,-660 303.88,-660 303.88,-660 297.88,-660 291.88,-654 291.88,-648 291.88,-648 291.88,-596.5 291.88,-596.5 291.88,-590.5 297.88,-584.5 303.88,-584.5 303.88,-584.5 493.88,-584.5 493.88,-584.5 499.88,-584.5 505.88,-590.5 505.88,-596.5 505.88,-596.5 505.88,-648 505.88,-648 505.88,-654 499.88,-660 493.88,-660"/>
<text xml:space="preserve" text-anchor="middle" x="398.88" y="-645.55" font-family="Arial" font-size="11.00">3. Create HTML Dictionary</text>
<text xml:space="preserve" text-anchor="middle" x="398.88" y="-632.05" font-family="Arial" font-size="11.00">(../amilib/ami_dict.create_html_dictionary)</text>
<text xml:space="preserve" text-anchor="middle" x="398.88" y="-618.55" font-family="Arial" font-size="11.00">• Convert to HTML format</text>
<text xml:space="preserve" text-anchor="middle" x="398.88" y="-605.05" font-family="Arial" font-size="11.00">• Add semantic markup</text>
<text xml:space="preserve" text-anchor="middle" x="398.88" y="-591.55" font-family="Arial" font-size="11.00">• Structure entries</text>
</g>
<!-- ADD_WIKIPEDIA&#45;&gt;CREATE_HTML_DICT -->
<g id="edge5" class="edge">
<title>ADD_WIKIPEDIA&#45;&gt;CREATE_HTML_DICT</title>
<path fill="none" stroke="black" d="M223.3,-695.53C247.42,-685.6 273.62,-674.81 298.25,-664.67"/>
<polygon fill="black" stroke="black" points="299.38,-667.99 307.3,-660.95 296.72,-661.52 299.38,-667.99"/>
</g>
<!-- ADD_WIKIDATA&#45;&gt;CREATE_HTML_DICT -->
<g id="edge6" class="edge">
<title>ADD_WIKIDATA&#45;&gt;CREATE_HTML_DICT</title>
<path fill="none" stroke="black" d="M398.88,-695.68C398.88,-687.92 398.88,-679.63 398.88,-671.53"/>
<polygon fill="black" stroke="black" points="402.38,-671.8 398.88,-661.8 395.38,-671.8 402.38,-671.8"/>
</g>
<!-- ADD_WIKTIONARY&#45;&gt;CREATE_HTML_DICT -->
<g id="edge7" class="edge">
<title>ADD_WIKTIONARY&#45;&gt;CREATE_HTML_DICT</title>
<path fill="none" stroke="black" d="M581.01,-702.39C554.42,-690.84 523.63,-677.46 495.02,-665.03"/>
<polygon fill="black" stroke="black" points="496.55,-661.87 485.98,-661.1 493.76,-668.29 496.55,-661.87"/>
</g>
<!-- CREATE_ENCYCLOPEDIA -->
<g id="node7" class="node">
<title>CREATE_ENCYCLOPEDIA</title>
<path fill="lightpink" stroke="black" d="M525.38,-548.5C525.38,-548.5 272.38,-548.5 272.38,-548.5 266.38,-548.5 260.38,-542.5 260.38,-536.5 260.38,-536.5 260.38,-471.5 260.38,-471.5 260.38,-465.5 266.38,-459.5 272.38,-459.5 272.38,-459.5 525.38,-459.5 525.38,-459.5 531.38,-459.5 537.38,-465.5 537.38,-471.5 537.38,-471.5 537.38,-536.5 537.38,-536.5 537.38,-542.5 531.38,-548.5 525.38,-548.5"/>
<text xml:space="preserve" text-anchor="middle" x="398.88" y="-534.05" font-family="Arial" font-size="11.00">4. Create Encyclopedia</text>
<text xml:space="preserve" text-anchor="middle" x="398.88" y="-520.55" font-family="Arial" font-size="11.00">(../amilib/ami_encyclopedia.create_from_html_content)</text>
<text xml:space="preserve" text-anchor="middle" x="398.88" y="-507.05" font-family="Arial" font-size="11.00">• Parse HTML dictionary</text>
<text xml:space="preserve" text-anchor="middle" x="398.88" y="-493.55" font-family="Arial" font-size="11.00">• Extract entries with metadata</text>
<text xml:space="preserve" text-anchor="middle" x="398.88" y="-480.05" font-family="Arial" font-size="11.00">• Extract Wikidata IDs</text>
<text xml:space="preserve" text-anchor="middle" x="398.88" y="-466.55" font-family="Arial" font-size="11.00">• Extract Wikipedia URLs</text>
</g>
<!-- CREATE_HTML_DICT&#45;&gt;CREATE_ENCYCLOPEDIA -->
<g id="edge8" class="edge">
<title>CREATE_HTML_DICT&#45;&gt;CREATE_ENCYCLOPEDIA</title>
<path fill="none" stroke="black" d="M398.88,-584.15C398.88,-576.47 398.88,-568.23 398.88,-560.06"/>
<polygon fill="black" stroke="black" points="402.38,-560.16 398.88,-550.16 395.38,-560.16 402.38,-560.16"/>
</g>
<!-- NORMALIZE -->
<g id="node8" class="node">
<title>NORMALIZE</title>
<path fill="lightsteelblue" stroke="black" d="M524.25,-423.5C524.25,-423.5 273.5,-423.5 273.5,-423.5 267.5,-423.5 261.5,-417.5 261.5,-411.5 261.5,-411.5 261.5,-373.5 261.5,-373.5 261.5,-367.5 267.5,-361.5 273.5,-361.5 273.5,-361.5 524.25,-361.5 524.25,-361.5 530.25,-361.5 536.25,-367.5 536.25,-373.5 536.25,-373.5 536.25,-411.5 536.25,-411.5 536.25,-417.5 530.25,-423.5 524.25,-423.5"/>
<text xml:space="preserve" text-anchor="middle" x="398.88" y="-409.05" font-family="Arial" font-size="11.00">5. Normalize by Wikidata ID</text>
<text xml:space="preserve" text-anchor="middle" x="398.88" y="-395.55" font-family="Arial" font-size="11.00">(../amilib/ami_encyclopedia.normalize_by_wikidata_id)</text>
<text xml:space="preserve" text-anchor="middle" x="398.88" y="-382.05" font-family="Arial" font-size="11.00">• Group entries by Wikidata ID</text>
<text xml:space="preserve" text-anchor="middle" x="398.88" y="-368.55" font-family="Arial" font-size="11.00">• Identify synonyms</text>
</g>
<!-- CREATE_ENCYCLOPEDIA&#45;&gt;NORMALIZE -->
<g id="edge9" class="edge">
<title>CREATE_ENCYCLOPEDIA&#45;&gt;NORMALIZE</title>
<path fill="none" stroke="black" d="M398.88,-459.09C398.88,-451.27 398.88,-443.14 398.88,-435.37"/>
<polygon fill="black" stroke="black" points="402.38,-435.47 398.88,-425.47 395.38,-435.47 402.38,-435.47"/>
</g>
<!-- MERGE_SYNONYMS -->
<g id="node9" class="node">
<title>MERGE_SYNONYMS</title>
<path fill="lightsteelblue" stroke="black" d="M543.38,-325.5C543.38,-325.5 254.38,-325.5 254.38,-325.5 248.38,-325.5 242.38,-319.5 242.38,-313.5 242.38,-313.5 242.38,-262 242.38,-262 242.38,-256 248.38,-250 254.38,-250 254.38,-250 543.38,-250 543.38,-250 549.38,-250 555.38,-256 555.38,-262 555.38,-262 555.38,-313.5 555.38,-313.5 555.38,-319.5 549.38,-325.5 543.38,-325.5"/>
<text xml:space="preserve" text-anchor="middle" x="398.88" y="-311.05" font-family="Arial" font-size="11.00">6. Merge Synonyms</text>
<text xml:space="preserve" text-anchor="middle" x="398.88" y="-297.55" font-family="Arial" font-size="11.00">(../amilib/ami_encyclopedia.merge_synonyms_by_wikidata_id)</text>
<text xml:space="preserve" text-anchor="middle" x="398.88" y="-284.05" font-family="Arial" font-size="11.00">• Merge entries with same Wikidata ID</text>
<text xml:space="preserve" text-anchor="middle" x="398.88" y="-270.55" font-family="Arial" font-size="11.00">• Aggregate terms</text>
<text xml:space="preserve" text-anchor="middle" x="398.88" y="-257.05" font-family="Arial" font-size="11.00">• Create canonical entries</text>
</g>
<!-- NORMALIZE&#45;&gt;MERGE_SYNONYMS -->
<g id="edge10" class="edge">
<title>NORMALIZE&#45;&gt;MERGE_SYNONYMS</title>
<path fill="none" stroke="black" d="M398.88,-361.23C398.88,-353.66 398.88,-345.36 398.88,-337.16"/>
<polygon fill="black" stroke="black" points="402.38,-337.23 398.88,-327.23 395.38,-337.23 402.38,-337.23"/>
</g>
<!-- ENCYCLOPEDIA_HTML -->
<g id="node10" class="node">
<title>ENCYCLOPEDIA_HTML</title>
<path fill="lightcyan" stroke="black" d="M497.25,-214C497.25,-214 300.5,-214 300.5,-214 294.5,-214 288.5,-208 288.5,-202 288.5,-202 288.5,-137 288.5,-137 288.5,-131 294.5,-125 300.5,-125 300.5,-125 497.25,-125 497.25,-125 503.25,-125 509.25,-131 509.25,-137 509.25,-137 509.25,-202 509.25,-202 509.25,-208 503.25,-214 497.25,-214"/>
<text xml:space="preserve" text-anchor="middle" x="398.88" y="-199.55" font-family="Arial" font-size="11.00">7. Generate Encyclopedia HTML</text>
<text xml:space="preserve" text-anchor="middle" x="398.88" y="-186.05" font-family="Arial" font-size="11.00">(../amilib/ami_encyclopedia.generate_html)</text>
<text xml:space="preserve" text-anchor="middle" x="398.88" y="-172.55" font-family="Arial" font-size="11.00">• Structured entries</text>
<text xml:space="preserve" text-anchor="middle" x="398.88" y="-159.05" font-family="Arial" font-size="11.00">• Semantic markup</text>
<text xml:space="preserve" text-anchor="middle" x="398.88" y="-145.55" font-family="Arial" font-size="11.00">• Interactive features</text>
<text xml:space="preserve" text-anchor="middle" x="398.88" y="-132.05" font-family="Arial" font-size="11.00">• Links &amp; references</text>
</g>
<!-- MERGE_SYNONYMS&#45;&gt;ENCYCLOPEDIA_HTML -->
<g id="edge11" class="edge">
<title>MERGE_SYNONYMS&#45;&gt;ENCYCLOPEDIA_HTML</title>
<path fill="none" stroke="black" d="M398.88,-249.65C398.88,-241.97 398.88,-233.73 398.88,-225.56"/>
<polygon fill="black" stroke="black" points="402.38,-225.66 398.88,-215.66 395.38,-225.66 402.38,-225.66"/>
</g>
<!-- OUTPUT -->
<g id="node11" class="node">
<title>OUTPUT</title>
<path fill="wheat" stroke="black" d="M467.25,-89C467.25,-89 330.5,-89 330.5,-89 324.5,-89 318.5,-83 318.5,-77 318.5,-77 318.5,-12 318.5,-12 318.5,-6 324.5,0 330.5,0 330.5,0 467.25,0 467.25,0 473.25,0 479.25,-6 479.25,-12 479.25,-12 479.25,-77 479.25,-77 479.25,-83 473.25,-89 467.25,-89"/>
<text xml:space="preserve" text-anchor="middle" x="398.88" y="-74.55" font-family="Arial" font-size="11.00">Encyclopedia Output</text>
<text xml:space="preserve" text-anchor="middle" x="398.88" y="-61.05" font-family="Arial" font-size="11.00">• HTML with enhanced entries</text>
<text xml:space="preserve" text-anchor="middle" x="398.88" y="-47.55" font-family="Arial" font-size="11.00">• Wikipedia content</text>
<text xml:space="preserve" text-anchor="middle" x="398.88" y="-34.05" font-family="Arial" font-size="11.00">• Wikidata IDs</text>
<text xml:space="preserve" text-anchor="middle" x="398.88" y="-20.55" font-family="Arial" font-size="11.00">• Normalized synonyms</text>
<text xml:space="preserve" text-anchor="middle" x="398.88" y="-7.05" font-family="Arial" font-size="11.00">• Links &amp; references</text>
</g>
<!-- ENCYCLOPEDIA_HTML&#45;&gt;OUTPUT -->
<g id="edge12" class="edge">
<title>ENCYCLOPEDIA_HTML&#45;&gt;OUTPUT</title>
<path fill="none" stroke="black" d="M398.88,-124.79C398.88,-117 398.88,-108.79 398.88,-100.73"/>
<polygon fill="black" stroke="black" points="402.38,-101 398.88,-91 395.38,-101 402.38,-101"/>
</g>
</g>
</svg>
