<?xml version="1.0" encoding="UTF-8" standalone="no"?>
<!DOCTYPE svg PUBLIC "-//W3C//DTD SVG 1.1//EN"
 "http://www.w3.org/Graphics/SVG/1.1/DTD/svg11.dtd">
<!-- Generated by graphviz version 13.1.0 (20250701.0955)
 -->
<!-- Title: encyclopedia_from_wordlist Pages: 1 -->
<svg width="751pt" height="1151pt"
 viewBox="0.00 0.00 751.00 1151.00" xmlns="http://www.w3.org/2000/svg" xmlns:xlink="http://www.w3.org/1999/xlink">
<g id="graph0" class="graph" transform="scale(1 1) rotate(0) translate(4 1147)">
<title>encyclopedia_from_wordlist</title>
<polygon fill="white" stroke="none" points="-4,4 -4,-1147 747.25,-1147 747.25,4 -4,4"/>
<!-- WORDLIST -->
<g id="node1" class="node">
<title>WORDLIST</title>
<path fill="lightblue" stroke="black" d="M435,-1143C435,-1143 335.75,-1143 335.75,-1143 329.75,-1143 323.75,-1137 323.75,-1131 323.75,-1131 323.75,-1079.5 323.75,-1079.5 323.75,-1073.5 329.75,-1067.5 335.75,-1067.5 335.75,-1067.5 435,-1067.5 435,-1067.5 441,-1067.5 447,-1073.5 447,-1079.5 447,-1079.5 447,-1131 447,-1131 447,-1137 441,-1143 435,-1143"/>
<text xml:space="preserve" text-anchor="middle" x="385.38" y="-1128.55" font-family="Arial" font-size="11.00">Wordlist</text>
<text xml:space="preserve" text-anchor="middle" x="385.38" y="-1115.05" font-family="Arial" font-size="11.00">(List of terms/phrases)</text>
<text xml:space="preserve" text-anchor="middle" x="385.38" y="-1101.55" font-family="Arial" font-size="11.00">• CSV files</text>
<text xml:space="preserve" text-anchor="middle" x="385.38" y="-1088.05" font-family="Arial" font-size="11.00">• Text files</text>
<text xml:space="preserve" text-anchor="middle" x="385.38" y="-1074.55" font-family="Arial" font-size="11.00">• Keyword extraction</text>
</g>
<!-- CREATE_DICT -->
<g id="node2" class="node">
<title>CREATE_DICT</title>
<path fill="lightgreen" stroke="black" d="M494.25,-1031.5C494.25,-1031.5 276.5,-1031.5 276.5,-1031.5 270.5,-1031.5 264.5,-1025.5 264.5,-1019.5 264.5,-1019.5 264.5,-968 264.5,-968 264.5,-962 270.5,-956 276.5,-956 276.5,-956 494.25,-956 494.25,-956 500.25,-956 506.25,-962 506.25,-968 506.25,-968 506.25,-1019.5 506.25,-1019.5 506.25,-1025.5 500.25,-1031.5 494.25,-1031.5"/>
<text xml:space="preserve" text-anchor="middle" x="385.38" y="-1017.05" font-family="Arial" font-size="11.00">1. Create Dictionary</text>
<text xml:space="preserve" text-anchor="middle" x="385.38" y="-1003.55" font-family="Arial" font-size="11.00">(amilib.ami_dict.create_dictionary_from_words)</text>
<text xml:space="preserve" text-anchor="middle" x="385.38" y="-990.05" font-family="Arial" font-size="11.00">• Create dictionary structure</text>
<text xml:space="preserve" text-anchor="middle" x="385.38" y="-976.55" font-family="Arial" font-size="11.00">• Add entries from terms</text>
<text xml:space="preserve" text-anchor="middle" x="385.38" y="-963.05" font-family="Arial" font-size="11.00">• Basic entry elements</text>
</g>
<!-- WORDLIST&#45;&gt;CREATE_DICT -->
<g id="edge1" class="edge">
<title>WORDLIST&#45;&gt;CREATE_DICT</title>
<path fill="none" stroke="black" d="M385.38,-1067.18C385.38,-1059.42 385.38,-1051.13 385.38,-1043.03"/>
<polygon fill="black" stroke="black" points="388.88,-1043.3 385.38,-1033.3 381.88,-1043.3 388.88,-1043.3"/>
</g>
<!-- ADD_WIKIPEDIA -->
<g id="node3" class="node">
<title>ADD_WIKIPEDIA</title>
<path fill="lightyellow" stroke="black" d="M244.75,-920C244.75,-920 12,-920 12,-920 6,-920 0,-914 0,-908 0,-908 0,-843 0,-843 0,-837 6,-831 12,-831 12,-831 244.75,-831 244.75,-831 250.75,-831 256.75,-837 256.75,-843 256.75,-843 256.75,-908 256.75,-908 256.75,-914 250.75,-920 244.75,-920"/>
<text xml:space="preserve" text-anchor="middle" x="128.38" y="-905.55" font-family="Arial" font-size="11.00">2a. Add Wikipedia</text>
<text xml:space="preserve" text-anchor="middle" x="128.38" y="-892.05" font-family="Arial" font-size="11.00">(amilib.ami_dict.lookup_and_add_wikipedia_page)</text>
<text xml:space="preserve" text-anchor="middle" x="128.38" y="-878.55" font-family="Arial" font-size="11.00">• Lookup Wikipedia page</text>
<text xml:space="preserve" text-anchor="middle" x="128.38" y="-865.05" font-family="Arial" font-size="11.00">• Extract first paragraph</text>
<text xml:space="preserve" text-anchor="middle" x="128.38" y="-851.55" font-family="Arial" font-size="11.00">• Get Wikipedia URL</text>
<text xml:space="preserve" text-anchor="middle" x="128.38" y="-838.05" font-family="Arial" font-size="11.00">• Extract Wikidata ID</text>
</g>
<!-- CREATE_DICT&#45;&gt;ADD_WIKIPEDIA -->
<g id="edge2" class="edge">
<title>CREATE_DICT&#45;&gt;ADD_WIKIPEDIA</title>
<path fill="none" stroke="black" d="M303.35,-955.65C281.82,-945.91 258.28,-935.26 235.65,-925.02"/>
<polygon fill="black" stroke="black" points="237.25,-921.91 226.7,-920.98 234.37,-928.29 237.25,-921.91"/>
</g>
<!-- ADD_WIKIDATA -->
<g id="node4" class="node">
<title>ADD_WIKIDATA</title>
<path fill="lightyellow" stroke="black" d="M483.75,-913.25C483.75,-913.25 287,-913.25 287,-913.25 281,-913.25 275,-907.25 275,-901.25 275,-901.25 275,-849.75 275,-849.75 275,-843.75 281,-837.75 287,-837.75 287,-837.75 483.75,-837.75 483.75,-837.75 489.75,-837.75 495.75,-843.75 495.75,-849.75 495.75,-849.75 495.75,-901.25 495.75,-901.25 495.75,-907.25 489.75,-913.25 483.75,-913.25"/>
<text xml:space="preserve" text-anchor="middle" x="385.38" y="-898.8" font-family="Arial" font-size="11.00">2b. Add Wikidata</text>
<text xml:space="preserve" text-anchor="middle" x="385.38" y="-885.3" font-family="Arial" font-size="11.00">(amilib.ami_dict.add_wikidata_from_terms)</text>
<text xml:space="preserve" text-anchor="middle" x="385.38" y="-871.8" font-family="Arial" font-size="11.00">• Lookup Wikidata ID</text>
<text xml:space="preserve" text-anchor="middle" x="385.38" y="-858.3" font-family="Arial" font-size="11.00">• Get Wikidata category</text>
<text xml:space="preserve" text-anchor="middle" x="385.38" y="-844.8" font-family="Arial" font-size="11.00">• Extract descriptions</text>
</g>
<!-- CREATE_DICT&#45;&gt;ADD_WIKIDATA -->
<g id="edge3" class="edge">
<title>CREATE_DICT&#45;&gt;ADD_WIKIDATA</title>
<path fill="none" stroke="black" d="M385.38,-955.65C385.38,-945.9 385.38,-935.23 385.38,-924.98"/>
<polygon fill="black" stroke="black" points="388.88,-925.16 385.38,-915.16 381.88,-925.16 388.88,-925.16"/>
</g>
<!-- ADD_WIKTIONARY -->
<g id="node5" class="node">
<title>ADD_WIKTIONARY</title>
<path fill="lightyellow" stroke="black" d="M731.25,-906.5C731.25,-906.5 525.5,-906.5 525.5,-906.5 519.5,-906.5 513.5,-900.5 513.5,-894.5 513.5,-894.5 513.5,-856.5 513.5,-856.5 513.5,-850.5 519.5,-844.5 525.5,-844.5 525.5,-844.5 731.25,-844.5 731.25,-844.5 737.25,-844.5 743.25,-850.5 743.25,-856.5 743.25,-856.5 743.25,-894.5 743.25,-894.5 743.25,-900.5 737.25,-906.5 731.25,-906.5"/>
<text xml:space="preserve" text-anchor="middle" x="628.38" y="-892.05" font-family="Arial" font-size="11.00">2c. Add Wiktionary</text>
<text xml:space="preserve" text-anchor="middle" x="628.38" y="-878.55" font-family="Arial" font-size="11.00">(amilib.ami_dict.add_wiktionary_from_terms)</text>
<text xml:space="preserve" text-anchor="middle" x="628.38" y="-865.05" font-family="Arial" font-size="11.00">• Lookup Wiktionary page</text>
<text xml:space="preserve" text-anchor="middle" x="628.38" y="-851.55" font-family="Arial" font-size="11.00">• Extract definitions</text>
</g>
<!-- CREATE_DICT&#45;&gt;ADD_WIKTIONARY -->
<g id="edge4" class="edge">
<title>CREATE_DICT&#45;&gt;ADD_WIKTIONARY</title>
<path fill="none" stroke="black" d="M462.93,-955.65C492.38,-941.56 525.8,-925.57 554.87,-911.67"/>
<polygon fill="black" stroke="black" points="556.07,-914.97 563.58,-907.5 553.05,-908.65 556.07,-914.97"/>
</g>
<!-- CREATE_HTML_DICT -->
<g id="node6" class="node">
<title>CREATE_HTML_DICT</title>
<path fill="lightcoral" stroke="black" d="M475.88,-795C475.88,-795 294.88,-795 294.88,-795 288.88,-795 282.88,-789 282.88,-783 282.88,-783 282.88,-718 282.88,-718 282.88,-712 288.88,-706 294.88,-706 294.88,-706 475.88,-706 475.88,-706 481.88,-706 487.88,-712 487.88,-718 487.88,-718 487.88,-783 487.88,-783 487.88,-789 481.88,-795 475.88,-795"/>
<text xml:space="preserve" text-anchor="middle" x="385.38" y="-780.55" font-family="Arial" font-size="11.00">3. Create HTML Dictionary</text>
<text xml:space="preserve" text-anchor="middle" x="385.38" y="-767.05" font-family="Arial" font-size="11.00">(amilib.ami_dict.create_html_dictionary)</text>
<text xml:space="preserve" text-anchor="middle" x="385.38" y="-753.55" font-family="Arial" font-size="11.00">• Convert to HTML format</text>
<text xml:space="preserve" text-anchor="middle" x="385.38" y="-740.05" font-family="Arial" font-size="11.00">• Add semantic markup</text>
<text xml:space="preserve" text-anchor="middle" x="385.38" y="-726.55" font-family="Arial" font-size="11.00">• Structure entries</text>
<text xml:space="preserve" text-anchor="middle" x="385.38" y="-713.05" font-family="Arial" font-size="11.00">• Add Wikidata IDs as attributes</text>
</g>
<!-- ADD_WIKIPEDIA&#45;&gt;CREATE_HTML_DICT -->
<g id="edge5" class="edge">
<title>ADD_WIKIPEDIA&#45;&gt;CREATE_HTML_DICT</title>
<path fill="none" stroke="black" d="M220.07,-830.62C240.63,-820.77 262.57,-810.27 283.52,-800.25"/>
<polygon fill="black" stroke="black" points="284.84,-803.5 292.35,-796.02 281.82,-797.18 284.84,-803.5"/>
</g>
<!-- ADD_WIKIDATA&#45;&gt;CREATE_HTML_DICT -->
<g id="edge6" class="edge">
<title>ADD_WIKIDATA&#45;&gt;CREATE_HTML_DICT</title>
<path fill="none" stroke="black" d="M385.38,-837.26C385.38,-827.5 385.38,-816.77 385.38,-806.3"/>
<polygon fill="black" stroke="black" points="388.88,-806.61 385.38,-796.61 381.88,-806.61 388.88,-806.61"/>
</g>
<!-- ADD_WIKTIONARY&#45;&gt;CREATE_HTML_DICT -->
<g id="edge7" class="edge">
<title>ADD_WIKTIONARY&#45;&gt;CREATE_HTML_DICT</title>
<path fill="none" stroke="black" d="M568.31,-844.1C542.41,-830.99 511.46,-815.32 482.44,-800.63"/>
<polygon fill="black" stroke="black" points="484.13,-797.56 473.62,-796.17 480.96,-803.81 484.13,-797.56"/>
</g>
<!-- CREATE_ENCYCLOPEDIA -->
<g id="node7" class="node">
<title>CREATE_ENCYCLOPEDIA</title>
<path fill="lightpink" stroke="black" d="M567.75,-670C567.75,-670 203,-670 203,-670 197,-670 191,-664 191,-658 191,-658 191,-579.5 191,-579.5 191,-573.5 197,-567.5 203,-567.5 203,-567.5 567.75,-567.5 567.75,-567.5 573.75,-567.5 579.75,-573.5 579.75,-579.5 579.75,-579.5 579.75,-658 579.75,-658 579.75,-664 573.75,-670 567.75,-670"/>
<text xml:space="preserve" text-anchor="middle" x="385.38" y="-655.55" font-family="Arial" font-size="11.00">4. Create Encyclopedia</text>
<text xml:space="preserve" text-anchor="middle" x="385.38" y="-642.05" font-family="Arial" font-size="11.00">(encyclopedia.core.encyclopedia.AmiEncyclopedia.create_from_html_content)</text>
<text xml:space="preserve" text-anchor="middle" x="385.38" y="-628.55" font-family="Arial" font-size="11.00">• Parse HTML dictionary</text>
<text xml:space="preserve" text-anchor="middle" x="385.38" y="-615.05" font-family="Arial" font-size="11.00">• Extract entries with metadata</text>
<text xml:space="preserve" text-anchor="middle" x="385.38" y="-601.55" font-family="Arial" font-size="11.00">• Extract Wikidata IDs</text>
<text xml:space="preserve" text-anchor="middle" x="385.38" y="-588.05" font-family="Arial" font-size="11.00">• Extract Wikipedia URLs</text>
<text xml:space="preserve" text-anchor="middle" x="385.38" y="-574.55" font-family="Arial" font-size="11.00">• Extract descriptions</text>
</g>
<!-- CREATE_HTML_DICT&#45;&gt;CREATE_ENCYCLOPEDIA -->
<g id="edge8" class="edge">
<title>CREATE_HTML_DICT&#45;&gt;CREATE_ENCYCLOPEDIA</title>
<path fill="none" stroke="black" d="M385.38,-705.57C385.38,-697.88 385.38,-689.74 385.38,-681.67"/>
<polygon fill="black" stroke="black" points="388.88,-681.86 385.38,-671.86 381.88,-681.86 388.88,-681.86"/>
</g>
<!-- NORMALIZE -->
<g id="node8" class="node">
<title>NORMALIZE</title>
<path fill="lightsteelblue" stroke="black" d="M566.62,-531.5C566.62,-531.5 204.12,-531.5 204.12,-531.5 198.12,-531.5 192.12,-525.5 192.12,-519.5 192.12,-519.5 192.12,-468 192.12,-468 192.12,-462 198.12,-456 204.12,-456 204.12,-456 566.62,-456 566.62,-456 572.62,-456 578.62,-462 578.62,-468 578.62,-468 578.62,-519.5 578.62,-519.5 578.62,-525.5 572.62,-531.5 566.62,-531.5"/>
<text xml:space="preserve" text-anchor="middle" x="385.38" y="-517.05" font-family="Arial" font-size="11.00">5. Normalize by Wikidata ID</text>
<text xml:space="preserve" text-anchor="middle" x="385.38" y="-503.55" font-family="Arial" font-size="11.00">(encyclopedia.core.encyclopedia.AmiEncyclopedia.normalize_by_wikidata_id)</text>
<text xml:space="preserve" text-anchor="middle" x="385.38" y="-490.05" font-family="Arial" font-size="11.00">• Group entries by Wikidata ID</text>
<text xml:space="preserve" text-anchor="middle" x="385.38" y="-476.55" font-family="Arial" font-size="11.00">• Identify synonyms</text>
<text xml:space="preserve" text-anchor="middle" x="385.38" y="-463.05" font-family="Arial" font-size="11.00">• Handle entries without Wikidata IDs</text>
</g>
<!-- CREATE_ENCYCLOPEDIA&#45;&gt;NORMALIZE -->
<g id="edge9" class="edge">
<title>CREATE_ENCYCLOPEDIA&#45;&gt;NORMALIZE</title>
<path fill="none" stroke="black" d="M385.38,-567.01C385.38,-559.19 385.38,-551.13 385.38,-543.35"/>
<polygon fill="black" stroke="black" points="388.88,-543.36 385.38,-533.36 381.88,-543.36 388.88,-543.36"/>
</g>
<!-- MERGE_SYNONYMS -->
<g id="node9" class="node">
<title>MERGE_SYNONYMS</title>
<path fill="lightsteelblue" stroke="black" d="M585.75,-420C585.75,-420 185,-420 185,-420 179,-420 173,-414 173,-408 173,-408 173,-343 173,-343 173,-337 179,-331 185,-331 185,-331 585.75,-331 585.75,-331 591.75,-331 597.75,-337 597.75,-343 597.75,-343 597.75,-408 597.75,-408 597.75,-414 591.75,-420 585.75,-420"/>
<text xml:space="preserve" text-anchor="middle" x="385.38" y="-405.55" font-family="Arial" font-size="11.00">6. Merge Synonyms</text>
<text xml:space="preserve" text-anchor="middle" x="385.38" y="-392.05" font-family="Arial" font-size="11.00">(encyclopedia.core.encyclopedia.AmiEncyclopedia.merge_synonyms_by_wikidata_id)</text>
<text xml:space="preserve" text-anchor="middle" x="385.38" y="-378.55" font-family="Arial" font-size="11.00">• Merge entries with same Wikidata ID</text>
<text xml:space="preserve" text-anchor="middle" x="385.38" y="-365.05" font-family="Arial" font-size="11.00">• Aggregate all terms as synonyms</text>
<text xml:space="preserve" text-anchor="middle" x="385.38" y="-351.55" font-family="Arial" font-size="11.00">• Create canonical entry</text>
<text xml:space="preserve" text-anchor="middle" x="385.38" y="-338.05" font-family="Arial" font-size="11.00">• Preserve best description</text>
</g>
<!-- NORMALIZE&#45;&gt;MERGE_SYNONYMS -->
<g id="edge10" class="edge">
<title>NORMALIZE&#45;&gt;MERGE_SYNONYMS</title>
<path fill="none" stroke="black" d="M385.38,-455.65C385.38,-447.97 385.38,-439.73 385.38,-431.56"/>
<polygon fill="black" stroke="black" points="388.88,-431.66 385.38,-421.66 381.88,-431.66 388.88,-431.66"/>
</g>
<!-- ENCYCLOPEDIA_HTML -->
<g id="node10" class="node">
<title>ENCYCLOPEDIA_HTML</title>
<path fill="lightcyan" stroke="black" d="M574.5,-295C574.5,-295 196.25,-295 196.25,-295 190.25,-295 184.25,-289 184.25,-283 184.25,-283 184.25,-164 184.25,-164 184.25,-158 190.25,-152 196.25,-152 196.25,-152 574.5,-152 574.5,-152 580.5,-152 586.5,-158 586.5,-164 586.5,-164 586.5,-283 586.5,-283 586.5,-289 580.5,-295 574.5,-295"/>
<text xml:space="preserve" text-anchor="middle" x="385.38" y="-280.55" font-family="Arial" font-size="11.00">7. Generate Encyclopedia HTML</text>
<text xml:space="preserve" text-anchor="middle" x="385.38" y="-267.05" font-family="Arial" font-size="11.00">(encyclopedia.core.encyclopedia.AmiEncyclopedia.create_wiki_normalized_html)</text>
<text xml:space="preserve" text-anchor="middle" x="385.38" y="-253.55" font-family="Arial" font-size="11.00">• Structured entries</text>
<text xml:space="preserve" text-anchor="middle" x="385.38" y="-240.05" font-family="Arial" font-size="11.00">• Semantic markup</text>
<text xml:space="preserve" text-anchor="middle" x="385.38" y="-226.55" font-family="Arial" font-size="11.00">• Interactive features:</text>
<text xml:space="preserve" text-anchor="middle" x="385.38" y="-213.05" font-family="Arial" font-size="11.00"> &#160;&#45; Hide checkboxes</text>
<text xml:space="preserve" text-anchor="middle" x="385.38" y="-199.55" font-family="Arial" font-size="11.00"> &#160;&#45; Disambiguation selectors</text>
<text xml:space="preserve" text-anchor="middle" x="385.38" y="-186.05" font-family="Arial" font-size="11.00"> &#160;&#45; Merge checkboxes</text>
<text xml:space="preserve" text-anchor="middle" x="385.38" y="-172.55" font-family="Arial" font-size="11.00">• Links &amp; references</text>
<text xml:space="preserve" text-anchor="middle" x="385.38" y="-159.05" font-family="Arial" font-size="11.00">• Metadata tracking</text>
</g>
<!-- MERGE_SYNONYMS&#45;&gt;ENCYCLOPEDIA_HTML -->
<g id="edge11" class="edge">
<title>MERGE_SYNONYMS&#45;&gt;ENCYCLOPEDIA_HTML</title>
<path fill="none" stroke="black" d="M385.38,-330.71C385.38,-323.1 385.38,-314.97 385.38,-306.72"/>
<polygon fill="black" stroke="black" points="388.88,-306.95 385.38,-296.95 381.88,-306.95 388.88,-306.95"/>
</g>
<!-- OUTPUT -->
<g id="node11" class="node">
<title>OUTPUT</title>
<path fill="wheat" stroke="black" d="M477.75,-116C477.75,-116 293,-116 293,-116 287,-116 281,-110 281,-104 281,-104 281,-12 281,-12 281,-6 287,0 293,0 293,0 477.75,0 477.75,0 483.75,0 489.75,-6 489.75,-12 489.75,-12 489.75,-104 489.75,-104 489.75,-110 483.75,-116 477.75,-116"/>
<text xml:space="preserve" text-anchor="middle" x="385.38" y="-101.55" font-family="Arial" font-size="11.00">Encyclopedia Output</text>
<text xml:space="preserve" text-anchor="middle" x="385.38" y="-88.05" font-family="Arial" font-size="11.00">• HTML with enhanced entries</text>
<text xml:space="preserve" text-anchor="middle" x="385.38" y="-74.55" font-family="Arial" font-size="11.00">• Wikipedia content</text>
<text xml:space="preserve" text-anchor="middle" x="385.38" y="-61.05" font-family="Arial" font-size="11.00">• Wikidata IDs (primary identifiers)</text>
<text xml:space="preserve" text-anchor="middle" x="385.38" y="-47.55" font-family="Arial" font-size="11.00">• Normalized synonyms</text>
<text xml:space="preserve" text-anchor="middle" x="385.38" y="-34.05" font-family="Arial" font-size="11.00">• Interactive controls</text>
<text xml:space="preserve" text-anchor="middle" x="385.38" y="-20.55" font-family="Arial" font-size="11.00">• Links &amp; references</text>
<text xml:space="preserve" text-anchor="middle" x="385.38" y="-7.05" font-family="Arial" font-size="11.00">• Metadata (actions, hidden entries, etc.)</text>
</g>
<!-- ENCYCLOPEDIA_HTML&#45;&gt;OUTPUT -->
<g id="edge12" class="edge">
<title>ENCYCLOPEDIA_HTML&#45;&gt;OUTPUT</title>
<path fill="none" stroke="black" d="M385.38,-151.74C385.38,-143.64 385.38,-135.4 385.38,-127.34"/>
<polygon fill="black" stroke="black" points="388.88,-127.61 385.38,-117.61 381.88,-127.61 388.88,-127.61"/>
</g>
</g>
</svg>
